<?xml version="1.0" encoding="utf-8"?>
<!-- Generator: Adobe Illustrator 17.1.0, SVG Export Plug-In . SVG Version: 6.00 Build 0)  -->
<!DOCTYPE svg PUBLIC "-//W3C//DTD SVG 1.1//EN" "http://www.w3.org/Graphics/SVG/1.1/DTD/svg11.dtd">
<svg version="1.1" id="Layer_1" xmlns="http://www.w3.org/2000/svg" xmlns:xlink="http://www.w3.org/1999/xlink" x="0px" y="0px"
	 viewBox="0 0 5188.326 1718.703" enable-background="new 0 0 5188.326 1718.703" xml:space="preserve">
<g>
	<rect x="0" y="1485.695" fill-rule="evenodd" clip-rule="evenodd" width="1238.264" height="233.008"/>
	<rect x="3950.062" y="1476" fill-rule="evenodd" clip-rule="evenodd" width="1238.264" height="241.853"/>
	<rect x="2333.145" y="1222.611" fill-rule="evenodd" clip-rule="evenodd" width="314.869" height="96.463"/>
	<rect x="3080.705" y="854.334" fill-rule="evenodd" clip-rule="evenodd" fill="#57585A" width="46.66" height="254.296"/>
	<rect x="1377.415" y="909.695" fill-rule="evenodd" clip-rule="evenodd" fill="#57585A" width="46.631" height="254.296"/>
	<rect x="3241.499" y="1087.257" fill-rule="evenodd" clip-rule="evenodd" fill="#57585A" width="69.333" height="286.186"/>
	<rect x="1538.18" y="1142.646" fill-rule="evenodd" clip-rule="evenodd" fill="#57585A" width="69.332" height="286.157"/>
	<rect x="2823.246" y="1064.637" fill-rule="evenodd" clip-rule="evenodd" fill="#57585A" width="40.856" height="187.795"/>
	<rect x="1119.927" y="1119.997" fill-rule="evenodd" clip-rule="evenodd" fill="#57585A" width="40.856" height="187.796"/>
	<path fill-rule="evenodd" clip-rule="evenodd" fill="#57585A" d="M1973.473,1034.958c2.831,0.851,5.604,1.672,8.32,2.494
		c2.688,0.794,5.29,1.588,7.891,2.352c0,8.873,0,19.219,0,31.465c0,14.797,0,32.967,0,55.786c-4.631,0-9.377,0-14.295,0
		c-5.089,0-10.35,0-15.782,0c3.774-24.889,6.69-44.277,9.035-59.84C1970.528,1054.545,1972.129,1043.943,1973.473,1034.958
		L1973.473,1034.958z"/>
	<rect x="3639.339" y="981.156" fill-rule="evenodd" clip-rule="evenodd" fill="#57585A" width="30.049" height="92.098"/>
	<rect x="2023.278" y="1115.66" fill-rule="evenodd" clip-rule="evenodd" fill="#57585A" width="54.809" height="210.388"/>
	<rect x="3702.981" y="1067.981" fill-rule="evenodd" clip-rule="evenodd" fill="#57585A" width="54.838" height="260.73"/>
	<rect x="2156.282" y="979.739" fill-rule="evenodd" clip-rule="evenodd" fill="#57585A" width="53.064" height="363.883"/>
	<rect x="3835.985" y="925.938" fill-rule="evenodd" clip-rule="evenodd" fill="#57585A" width="53.064" height="363.883"/>
	<rect x="2225.986" y="1257.704" fill-rule="evenodd" clip-rule="evenodd" width="507.771" height="302.514"/>
	<rect x="2371.713" y="562.394" fill-rule="evenodd" clip-rule="evenodd" fill="#D2D9DD" width="241.363" height="997.824"/>
	<rect x="2371.713" y="562.394" fill-rule="evenodd" clip-rule="evenodd" width="241.363" height="117.383"/>
	<rect x="2371.713" y="691.059" fill-rule="evenodd" clip-rule="evenodd" fill="#CC3300" width="241.363" height="117.411"/>
	<rect x="2371.713" y="819.751" fill-rule="evenodd" clip-rule="evenodd" width="241.363" height="117.382"/>
	<rect x="2387.781" y="699.109" fill-rule="evenodd" clip-rule="evenodd" fill="#FBAF15" width="86.83" height="100.432"/>
	<rect x="2506.976" y="699.421" fill-rule="evenodd" clip-rule="evenodd" fill="#FBAF15" width="86.83" height="100.432"/>
	<g>
		<defs>
			<polygon id="SVGID_1_" points="2372.342,817.37 2613.705,817.37 2613.705,903.941 2613.705,912.274 2613.705,998.845 
				2613.705,1007.179 2613.705,1093.748 2613.705,1553.301 2372.342,1553.301 2372.342,1093.748 2372.342,1007.179 
				2372.342,998.845 2372.342,912.274 2372.342,903.941 			"/>
		</defs>
		<clipPath id="SVGID_2_">
			<use xlink:href="#SVGID_1_"  overflow="visible"/>
		</clipPath>
		
			<rect x="2314.246" y="693.865" clip-path="url(#SVGID_2_)" fill-rule="evenodd" clip-rule="evenodd" fill="#E5E5E5" width="6.719" height="819.212"/>
		
			<rect x="2465.062" y="695.141" clip-path="url(#SVGID_2_)" fill-rule="evenodd" clip-rule="evenodd" fill="#E5E5E5" width="6.719" height="819.213"/>
		
			<rect x="2335.489" y="692.618" clip-path="url(#SVGID_2_)" fill-rule="evenodd" clip-rule="evenodd" fill="#E5E5E5" width="6.719" height="819.184"/>
		
			<rect x="2486.305" y="693.865" clip-path="url(#SVGID_2_)" fill-rule="evenodd" clip-rule="evenodd" fill="#E5E5E5" width="6.719" height="819.212"/>
		
			<rect x="2356.76" y="691.342" clip-path="url(#SVGID_2_)" fill-rule="evenodd" clip-rule="evenodd" fill="#E5E5E5" width="6.719" height="819.213"/>
		
			<rect x="2507.548" y="692.618" clip-path="url(#SVGID_2_)" fill-rule="evenodd" clip-rule="evenodd" fill="#E5E5E5" width="6.719" height="819.184"/>
		
			<rect x="2378.003" y="691.342" clip-path="url(#SVGID_2_)" fill-rule="evenodd" clip-rule="evenodd" fill="#E5E5E5" width="6.719" height="819.213"/>
		
			<rect x="2528.819" y="692.618" clip-path="url(#SVGID_2_)" fill-rule="evenodd" clip-rule="evenodd" fill="#E5E5E5" width="6.719" height="819.184"/>
		
			<rect x="2399.246" y="690.095" clip-path="url(#SVGID_2_)" fill-rule="evenodd" clip-rule="evenodd" fill="#E5E5E5" width="6.719" height="819.185"/>
		
			<rect x="2550.062" y="691.342" clip-path="url(#SVGID_2_)" fill-rule="evenodd" clip-rule="evenodd" fill="#E5E5E5" width="6.719" height="819.213"/>
		
			<rect x="2420.518" y="690.095" clip-path="url(#SVGID_2_)" fill-rule="evenodd" clip-rule="evenodd" fill="#E5E5E5" width="6.719" height="819.185"/>
		
			<rect x="2571.305" y="691.342" clip-path="url(#SVGID_2_)" fill-rule="evenodd" clip-rule="evenodd" fill="#E5E5E5" width="6.719" height="819.213"/>
		
			<rect x="2441.76" y="690.095" clip-path="url(#SVGID_2_)" fill-rule="evenodd" clip-rule="evenodd" fill="#E5E5E5" width="6.719" height="819.185"/>
		
			<rect x="2592.576" y="691.342" clip-path="url(#SVGID_2_)" fill-rule="evenodd" clip-rule="evenodd" fill="#E5E5E5" width="6.719" height="819.213"/>
	</g>
	<g>
		<defs>
			<path id="SVGID_3_" d="M2264.469,379.531c76.566,0,153.218,0,229.812,0c76.566,0,153.218,0,230.013,0c0,35.83,0,71.575,0,107.263
				c0,35.717,0,71.461,0,107.206c-76.709,0-153.39,0-230.013,0c-76.651,0-153.332,0-229.812,0c0-35.66,0-71.433,0-107.206
				C2264.469,451.049,2264.469,415.276,2264.469,379.531L2264.469,379.531z"/>
		</defs>
		<use xlink:href="#SVGID_3_"  overflow="visible" fill-rule="evenodd" clip-rule="evenodd"/>
		<clipPath id="SVGID_4_">
			<use xlink:href="#SVGID_3_"  overflow="visible"/>
		</clipPath>
		
			<rect x="2187.846" y="399.005" clip-path="url(#SVGID_4_)" fill-rule="evenodd" clip-rule="evenodd" fill="#CC3300" width="624.107" height="155.622"/>
		
			<rect x="2207.459" y="409.635" clip-path="url(#SVGID_4_)" fill-rule="evenodd" clip-rule="evenodd" fill="#FBAF15" width="106.186" height="133.172"/>
		
			<rect x="2330.743" y="409.635" clip-path="url(#SVGID_4_)" fill-rule="evenodd" clip-rule="evenodd" fill="#FBAF15" width="106.186" height="133.172"/>
		
			<rect x="2454.026" y="409.635" clip-path="url(#SVGID_4_)" fill-rule="evenodd" clip-rule="evenodd" fill="#FBAF15" width="106.186" height="133.172"/>
		
			<rect x="2577.309" y="409.635" clip-path="url(#SVGID_4_)" fill-rule="evenodd" clip-rule="evenodd" fill="#FBAF15" width="106.186" height="133.172"/>
		
			<rect x="2690.871" y="410.599" clip-path="url(#SVGID_4_)" fill-rule="evenodd" clip-rule="evenodd" fill="#FBAF15" width="106.186" height="133.143"/>
		
			<rect x="2215.779" y="420.123" clip-path="url(#SVGID_4_)" fill-rule="evenodd" clip-rule="evenodd" fill="#D2D9DD" width="91.891" height="115.229"/>
	</g>
	<g>
		<defs>
			<polygon id="SVGID_5_" points="2264.469,420.123 2307.67,420.123 2307.67,535.352 2264.469,535.352 2264.469,486.794 			"/>
		</defs>
		<clipPath id="SVGID_6_">
			<use xlink:href="#SVGID_5_"  overflow="visible"/>
		</clipPath>
		<polygon clip-path="url(#SVGID_6_)" fill-rule="evenodd" clip-rule="evenodd" fill="#E6E6E6" points="2315.875,344.892 
			2307.613,336.643 2123.517,549.156 2131.751,557.405 		"/>
		<polygon clip-path="url(#SVGID_6_)" fill-rule="evenodd" clip-rule="evenodd" fill="#E6E6E6" points="2333.116,359.49 
			2324.882,351.241 2140.786,563.755 2149.02,572.003 		"/>
		<polygon clip-path="url(#SVGID_6_)" fill-rule="evenodd" clip-rule="evenodd" fill="#E6E6E6" points="2375.373,399.147 
			2367.139,390.898 2183.043,603.411 2191.277,611.66 		"/>
		<polygon clip-path="url(#SVGID_6_)" fill-rule="evenodd" clip-rule="evenodd" fill="#E6E6E6" points="2379.861,403.711 
			2371.627,395.462 2187.532,607.975 2195.766,616.224 		"/>
	</g>
	<g>
		<defs>
			<path id="SVGID_7_" d="M2264.469,379.531c76.566,0,153.218,0,229.812,0c76.566,0,153.218,0,230.013,0c0,35.83,0,71.575,0,107.263
				c0,35.717,0,71.461,0,107.206c-76.709,0-153.39,0-230.013,0c-76.651,0-153.332,0-229.812,0c0-35.66,0-71.433,0-107.206
				C2264.469,451.049,2264.469,415.276,2264.469,379.531L2264.469,379.531z"/>
		</defs>
		<clipPath id="SVGID_8_">
			<use xlink:href="#SVGID_7_"  overflow="visible"/>
		</clipPath>
		
			<rect x="2339.062" y="420.123" clip-path="url(#SVGID_8_)" fill-rule="evenodd" clip-rule="evenodd" fill="#D2D9DD" width="91.891" height="115.229"/>
	</g>
	<g>
		<defs>
			<rect id="SVGID_9_" x="2339.062" y="420.123" width="91.891" height="115.229"/>
		</defs>
		<clipPath id="SVGID_10_">
			<use xlink:href="#SVGID_9_"  overflow="visible"/>
		</clipPath>
		<polygon clip-path="url(#SVGID_10_)" fill-rule="evenodd" clip-rule="evenodd" fill="#E6E6E6" points="2439.13,344.892 
			2430.896,336.643 2246.8,549.156 2255.035,557.405 		"/>
		<polygon clip-path="url(#SVGID_10_)" fill-rule="evenodd" clip-rule="evenodd" fill="#E6E6E6" points="2456.399,359.49 
			2448.165,351.241 2264.069,563.755 2272.303,572.003 		"/>
		<polygon clip-path="url(#SVGID_10_)" fill-rule="evenodd" clip-rule="evenodd" fill="#E6E6E6" points="2498.656,399.147 
			2490.422,390.898 2306.326,603.411 2314.561,611.66 		"/>
		<polygon clip-path="url(#SVGID_10_)" fill-rule="evenodd" clip-rule="evenodd" fill="#E6E6E6" points="2503.145,403.711 
			2494.911,395.462 2310.815,607.975 2319.049,616.224 		"/>
	</g>
	<g>
		<defs>
			<path id="SVGID_11_" d="M2264.469,379.531c76.566,0,153.218,0,229.812,0c76.566,0,153.218,0,230.013,0
				c0,35.83,0,71.575,0,107.263c0,35.717,0,71.461,0,107.206c-76.709,0-153.39,0-230.013,0c-76.651,0-153.332,0-229.812,0
				c0-35.66,0-71.433,0-107.206C2264.469,451.049,2264.469,415.276,2264.469,379.531L2264.469,379.531z"/>
		</defs>
		<clipPath id="SVGID_12_">
			<use xlink:href="#SVGID_11_"  overflow="visible"/>
		</clipPath>
		
			<rect x="2462.346" y="420.123" clip-path="url(#SVGID_12_)" fill-rule="evenodd" clip-rule="evenodd" fill="#D2D9DD" width="91.891" height="115.229"/>
	</g>
	<g>
		<defs>
			<rect id="SVGID_13_" x="2462.346" y="420.123" width="91.891" height="115.229"/>
		</defs>
		<clipPath id="SVGID_14_">
			<use xlink:href="#SVGID_13_"  overflow="visible"/>
		</clipPath>
		<polygon clip-path="url(#SVGID_14_)" fill-rule="evenodd" clip-rule="evenodd" fill="#E6E6E6" points="2562.413,344.892 
			2554.179,336.643 2370.083,549.156 2378.317,557.405 		"/>
		<polygon clip-path="url(#SVGID_14_)" fill-rule="evenodd" clip-rule="evenodd" fill="#E6E6E6" points="2579.682,359.49 
			2571.448,351.241 2387.353,563.755 2395.586,572.003 		"/>
		<polygon clip-path="url(#SVGID_14_)" fill-rule="evenodd" clip-rule="evenodd" fill="#E6E6E6" points="2621.938,399.147 
			2613.705,390.898 2429.609,603.411 2437.843,611.66 		"/>
		<polygon clip-path="url(#SVGID_14_)" fill-rule="evenodd" clip-rule="evenodd" fill="#E6E6E6" points="2626.428,403.711 
			2618.193,395.462 2434.098,607.975 2442.332,616.224 		"/>
	</g>
	<g>
		<defs>
			<path id="SVGID_15_" d="M2264.469,379.531c76.566,0,153.218,0,229.812,0c76.566,0,153.218,0,230.013,0
				c0,35.83,0,71.575,0,107.263c0,35.717,0,71.461,0,107.206c-76.709,0-153.39,0-230.013,0c-76.651,0-153.332,0-229.812,0
				c0-35.66,0-71.433,0-107.206C2264.469,451.049,2264.469,415.276,2264.469,379.531L2264.469,379.531z"/>
		</defs>
		<clipPath id="SVGID_16_">
			<use xlink:href="#SVGID_15_"  overflow="visible"/>
		</clipPath>
		
			<rect x="2585.629" y="420.123" clip-path="url(#SVGID_16_)" fill-rule="evenodd" clip-rule="evenodd" fill="#D2D9DD" width="91.891" height="115.229"/>
	</g>
	<g>
		<defs>
			<rect id="SVGID_17_" x="2585.629" y="420.123" width="91.891" height="115.229"/>
		</defs>
		<clipPath id="SVGID_18_">
			<use xlink:href="#SVGID_17_"  overflow="visible"/>
		</clipPath>
		<polygon clip-path="url(#SVGID_18_)" fill-rule="evenodd" clip-rule="evenodd" fill="#E6E6E6" points="2685.696,344.892 
			2677.462,336.643 2493.367,549.156 2501.601,557.405 		"/>
		<polygon clip-path="url(#SVGID_18_)" fill-rule="evenodd" clip-rule="evenodd" fill="#E6E6E6" points="2702.965,359.49 
			2694.73,351.241 2510.635,563.755 2518.87,572.003 		"/>
		<polygon clip-path="url(#SVGID_18_)" fill-rule="evenodd" clip-rule="evenodd" fill="#E6E6E6" points="2745.222,399.147 
			2736.988,390.898 2552.893,603.411 2561.126,611.66 		"/>
		<polygon clip-path="url(#SVGID_18_)" fill-rule="evenodd" clip-rule="evenodd" fill="#E6E6E6" points="2749.711,403.711 
			2741.477,395.462 2557.381,607.975 2565.615,616.224 		"/>
	</g>
	<g>
		<defs>
			<path id="SVGID_19_" d="M2264.469,379.531c76.566,0,153.218,0,229.812,0c76.566,0,153.218,0,230.013,0
				c0,35.83,0,71.575,0,107.263c0,35.717,0,71.461,0,107.206c-76.709,0-153.39,0-230.013,0c-76.651,0-153.332,0-229.812,0
				c0-35.66,0-71.433,0-107.206C2264.469,451.049,2264.469,415.276,2264.469,379.531L2264.469,379.531z"/>
		</defs>
		<clipPath id="SVGID_20_">
			<use xlink:href="#SVGID_19_"  overflow="visible"/>
		</clipPath>
		
			<rect x="2698.962" y="419.188" clip-path="url(#SVGID_20_)" fill-rule="evenodd" clip-rule="evenodd" fill="#D2D9DD" width="91.891" height="115.229"/>
	</g>
	<g>
		<defs>
			<polygon id="SVGID_21_" points="2698.962,419.188 2724.294,419.188 2724.294,486.794 2724.294,534.416 2698.962,534.416 			"/>
		</defs>
		<clipPath id="SVGID_22_">
			<use xlink:href="#SVGID_21_"  overflow="visible"/>
		</clipPath>
		<polygon clip-path="url(#SVGID_22_)" fill-rule="evenodd" clip-rule="evenodd" fill="#E6E6E6" points="2799.059,343.956 
			2790.824,335.707 2606.7,548.221 2614.963,556.47 		"/>
		<polygon clip-path="url(#SVGID_22_)" fill-rule="evenodd" clip-rule="evenodd" fill="#E6E6E6" points="2816.299,358.555 
			2808.064,350.306 2623.969,562.819 2632.203,571.068 		"/>
		<polygon clip-path="url(#SVGID_22_)" fill-rule="evenodd" clip-rule="evenodd" fill="#E6E6E6" points="2858.556,398.183 
			2850.321,389.934 2666.226,602.476 2674.46,610.696 		"/>
		<polygon clip-path="url(#SVGID_22_)" fill-rule="evenodd" clip-rule="evenodd" fill="#E6E6E6" points="2863.044,402.775 
			2854.811,394.526 2670.715,607.04 2678.949,615.289 		"/>
	</g>
	<g>
		<defs>
			<rect id="SVGID_23_" x="2518.583" y="709.739" width="63.614" height="79.767"/>
		</defs>
		<use xlink:href="#SVGID_23_"  overflow="visible" fill-rule="evenodd" clip-rule="evenodd" fill="#D2D9DD"/>
		<clipPath id="SVGID_24_">
			<use xlink:href="#SVGID_23_"  overflow="visible"/>
		</clipPath>
		<polygon clip-path="url(#SVGID_24_)" fill-rule="evenodd" clip-rule="evenodd" fill="#E6E6E6" points="2587.859,657.667 
			2582.141,651.969 2454.741,799.059 2460.43,804.756 		"/>
		<polygon clip-path="url(#SVGID_24_)" fill-rule="evenodd" clip-rule="evenodd" fill="#E6E6E6" points="2599.781,667.786 
			2594.092,662.088 2466.691,809.15 2472.381,814.876 		"/>
		<polygon clip-path="url(#SVGID_24_)" fill-rule="evenodd" clip-rule="evenodd" fill="#E6E6E6" points="2629.058,695.226 
			2623.34,689.528 2495.94,836.589 2501.629,842.315 		"/>
		<polygon clip-path="url(#SVGID_24_)" fill-rule="evenodd" clip-rule="evenodd" fill="#E6E6E6" points="2632.146,698.372 
			2626.456,692.674 2499.027,839.764 2504.746,845.462 		"/>
	</g>
	<g>
		<defs>
			<rect id="SVGID_25_" x="2399.389" y="709.427" width="63.614" height="79.767"/>
		</defs>
		<use xlink:href="#SVGID_25_"  overflow="visible" fill-rule="evenodd" clip-rule="evenodd" fill="#D2D9DD"/>
		<clipPath id="SVGID_26_">
			<use xlink:href="#SVGID_25_"  overflow="visible"/>
		</clipPath>
		<polygon clip-path="url(#SVGID_26_)" fill-rule="evenodd" clip-rule="evenodd" fill="#E6E6E6" points="2468.664,657.383 
			2462.946,651.657 2335.546,798.747 2341.235,804.444 		"/>
		<polygon clip-path="url(#SVGID_26_)" fill-rule="evenodd" clip-rule="evenodd" fill="#E6E6E6" points="2480.586,667.475 
			2474.897,661.777 2347.497,808.838 2353.187,814.564 		"/>
		<polygon clip-path="url(#SVGID_26_)" fill-rule="evenodd" clip-rule="evenodd" fill="#E6E6E6" points="2509.863,694.914 
			2504.146,689.216 2376.745,836.277 2382.435,842.003 		"/>
		<polygon clip-path="url(#SVGID_26_)" fill-rule="evenodd" clip-rule="evenodd" fill="#E6E6E6" points="2512.951,698.088 
			2507.262,692.362 2379.833,839.452 2385.551,845.15 		"/>
	</g>
	<rect x="2371.713" y="616.564" fill-rule="evenodd" clip-rule="evenodd" fill="#CC3300" width="241.363" height="45.156"/>
	<polygon fill-rule="evenodd" clip-rule="evenodd" points="3107.866,854.334 3107.866,1087.257 3245.53,1087.257 3245.53,1350.567 
		3346.685,1350.567 3346.685,1550.75 2978.923,1550.75 2978.923,1552.365 2824.99,1552.365 2824.99,1552.309 2755.286,1552.309 
		2755.286,1554.066 2679.206,1554.066 2679.206,1141.938 2753.399,1141.938 2753.399,1064.637 2825.934,1064.637 2825.934,1231.313 
		2974.577,1231.313 2974.577,962.362 3041.965,962.362 3041.965,854.334 	"/>
	<polygon fill-rule="evenodd" clip-rule="evenodd" points="1404.547,909.695 1404.547,1142.646 1542.211,1142.646 
		1542.211,1405.928 1643.394,1405.928 1643.394,1606.139 1275.631,1606.139 1275.631,1607.755 1121.699,1607.755 1121.699,1607.67 
		1051.966,1607.67 1051.966,1609.427 975.915,1609.427 975.915,1197.298 1050.08,1197.298 1050.08,1119.997 1122.614,1119.997 
		1122.614,1286.675 1271.257,1286.675 1271.257,1017.723 1338.674,1017.723 1338.674,909.695 	"/>
	<polygon fill-rule="evenodd" clip-rule="evenodd" points="1902.197,1034.958 1902.197,1208.948 1752.667,1208.948 
		1752.667,1405.616 1641.535,1405.616 1641.535,1555.144 2042.263,1555.144 2042.263,1556.334 2209.49,1556.334 2209.49,1556.306 
		2285.227,1556.306 2285.227,1557.609 2367.854,1557.609 2367.854,1249.796 2287.256,1249.796 2287.256,1192.054 2208.489,1192.054 
		2208.489,1316.524 2047.009,1316.524 2047.009,1115.66 1973.788,1115.66 1973.788,1034.958 	"/>
	<polygon fill-rule="evenodd" clip-rule="evenodd" points="3581.929,981.156 3581.929,1168.951 3432.371,1168.951 
		3432.371,1381.238 3321.268,1381.238 3321.268,1542.643 3721.995,1542.643 3721.995,1543.947 3889.193,1543.947 3889.193,1543.89 
		3964.93,1543.89 3964.93,1545.308 4047.558,1545.308 4047.558,1213.03 3966.96,1213.03 3966.96,1150.725 3888.192,1150.725 
		3888.192,1285.087 3726.712,1285.087 3726.712,1068.265 3653.491,1068.265 3653.491,981.156 	"/>
	<rect x="2070.481" y="979.739" fill-rule="evenodd" clip-rule="evenodd" width="94.635" height="550.828"/>
	<rect x="3750.185" y="925.938" fill-rule="evenodd" clip-rule="evenodd" width="94.636" height="550.828"/>
	<rect x="975.915" y="1506.899" fill-rule="evenodd" clip-rule="evenodd" width="3071.643" height="213.165"/>
	<rect x="2449.194" y="295.767" fill-rule="evenodd" clip-rule="evenodd" width="115.192" height="95.159"/>
	<rect x="2459" y="233.915" fill-rule="evenodd" clip-rule="evenodd" width="95.979" height="61.852"/>
	<path fill-rule="evenodd" clip-rule="evenodd" fill="#FF0000" d="M2493.195,72.624c11.465,0,20.785-9.921,20.785-22.082
		c0-12.161-9.32-22.082-20.785-22.082c-11.437,0-20.757,9.921-20.757,22.082C2472.438,62.703,2481.759,72.624,2493.195,72.624
		L2493.195,72.624z"/>
	<path fill-rule="evenodd" clip-rule="evenodd" fill="#FF0000" d="M2528.991,44.136c11.436,0,20.785-9.893,20.785-22.054
		c0-12.161-9.349-22.082-20.785-22.082c-11.437,0-20.786,9.921-20.786,22.082C2508.205,34.243,2517.554,44.136,2528.991,44.136
		L2528.991,44.136z"/>
	<rect x="2488.821" y="52.895" fill-rule="evenodd" clip-rule="evenodd" width="9.063" height="211.947"/>
	<rect x="2507.348" y="67.691" fill-rule="evenodd" clip-rule="evenodd" width="6.633" height="175.323"/>
	<rect x="2525.474" y="22.564" fill-rule="evenodd" clip-rule="evenodd" width="5.318" height="240.18"/>
	<rect x="2484.36" y="35.717" fill-rule="evenodd" clip-rule="evenodd" fill="#990000" width="17.669" height="31.975"/>
	<rect x="2520.985" y="12.047" fill-rule="evenodd" clip-rule="evenodd" fill="#990000" width="15.124" height="28.035"/>
	<rect x="0" y="1594.403" fill-rule="evenodd" clip-rule="evenodd" fill="#FEFEFE" width="5188.326" height="26.306"/>
	<rect x="3121.99" y="1108.63" fill-rule="evenodd" clip-rule="evenodd" fill="#3F3F41" width="14.152" height="56.098"/>
	<rect x="3155.127" y="1108.205" fill-rule="evenodd" clip-rule="evenodd" fill="#3F3F41" width="14.152" height="56.126"/>
	<rect x="3188.264" y="1109.112" fill-rule="evenodd" clip-rule="evenodd" fill="#3F3F41" width="14.152" height="56.126"/>
	<rect x="3221.4" y="1110.02" fill-rule="evenodd" clip-rule="evenodd" fill="#3F3F41" width="14.152" height="56.126"/>
	<rect x="3120.961" y="1190.552" fill-rule="evenodd" clip-rule="evenodd" fill="#3F3F41" width="14.152" height="56.126"/>
	<rect x="3154.098" y="1190.126" fill-rule="evenodd" clip-rule="evenodd" fill="#3F3F41" width="14.152" height="56.126"/>
	<rect x="3187.234" y="1191.062" fill-rule="evenodd" clip-rule="evenodd" fill="#3F3F41" width="14.152" height="56.098"/>
	<rect x="3220.371" y="1191.969" fill-rule="evenodd" clip-rule="evenodd" fill="#3F3F41" width="14.152" height="56.126"/>
	<rect x="3119.932" y="1272.501" fill-rule="evenodd" clip-rule="evenodd" fill="#3F3F41" width="14.152" height="56.098"/>
	<rect x="3153.068" y="1272.076" fill-rule="evenodd" clip-rule="evenodd" fill="#3F3F41" width="14.152" height="56.126"/>
	<rect x="3186.205" y="1272.983" fill-rule="evenodd" clip-rule="evenodd" fill="#3F3F41" width="14.152" height="56.126"/>
	<rect x="3219.342" y="1273.89" fill-rule="evenodd" clip-rule="evenodd" fill="#3F3F41" width="14.152" height="56.126"/>
	<rect x="1418.671" y="1163.991" fill-rule="evenodd" clip-rule="evenodd" fill="#3F3F41" width="14.152" height="56.126"/>
	<rect x="1451.808" y="1163.565" fill-rule="evenodd" clip-rule="evenodd" fill="#3F3F41" width="14.152" height="56.126"/>
	<rect x="1484.944" y="1164.473" fill-rule="evenodd" clip-rule="evenodd" fill="#3F3F41" width="14.152" height="56.126"/>
	<rect x="1518.081" y="1165.38" fill-rule="evenodd" clip-rule="evenodd" fill="#3F3F41" width="14.152" height="56.126"/>
	<rect x="1417.642" y="1245.912" fill-rule="evenodd" clip-rule="evenodd" fill="#3F3F41" width="14.152" height="56.126"/>
	<rect x="1450.778" y="1245.487" fill-rule="evenodd" clip-rule="evenodd" fill="#3F3F41" width="14.152" height="56.126"/>
	<rect x="1483.915" y="1246.422" fill-rule="evenodd" clip-rule="evenodd" fill="#3F3F41" width="14.153" height="56.098"/>
	<rect x="1517.051" y="1247.329" fill-rule="evenodd" clip-rule="evenodd" fill="#3F3F41" width="14.152" height="56.126"/>
	<rect x="1416.641" y="1327.861" fill-rule="evenodd" clip-rule="evenodd" fill="#3F3F41" width="14.153" height="56.126"/>
	<rect x="1449.777" y="1327.437" fill-rule="evenodd" clip-rule="evenodd" fill="#3F3F41" width="14.152" height="56.126"/>
	<rect x="1482.914" y="1328.344" fill-rule="evenodd" clip-rule="evenodd" fill="#3F3F41" width="14.152" height="56.126"/>
	<rect x="1516.051" y="1329.251" fill-rule="evenodd" clip-rule="evenodd" fill="#3F3F41" width="14.152" height="56.126"/>
	<rect x="1772.166" y="1225.191" fill-rule="evenodd" clip-rule="evenodd" fill="#3F3F41" width="14.152" height="45.127"/>
	<rect x="1805.303" y="1224.851" fill-rule="evenodd" clip-rule="evenodd" fill="#3F3F41" width="14.152" height="45.128"/>
	<rect x="1838.439" y="1225.588" fill-rule="evenodd" clip-rule="evenodd" fill="#3F3F41" width="14.152" height="45.127"/>
	<rect x="1871.576" y="1226.325" fill-rule="evenodd" clip-rule="evenodd" fill="#3F3F41" width="14.152" height="45.127"/>
	<rect x="3451.87" y="1171.39" fill-rule="evenodd" clip-rule="evenodd" fill="#3F3F41" width="14.152" height="45.127"/>
	<rect x="3485.007" y="1171.049" fill-rule="evenodd" clip-rule="evenodd" fill="#3F3F41" width="14.152" height="45.128"/>
	<rect x="3518.144" y="1171.786" fill-rule="evenodd" clip-rule="evenodd" fill="#3F3F41" width="14.152" height="45.128"/>
	<rect x="3551.279" y="1172.524" fill-rule="evenodd" clip-rule="evenodd" fill="#3F3F41" width="14.152" height="45.127"/>
	<rect x="1771.137" y="1291.068" fill-rule="evenodd" clip-rule="evenodd" fill="#3F3F41" width="14.153" height="45.127"/>
	<rect x="1804.273" y="1290.728" fill-rule="evenodd" clip-rule="evenodd" fill="#3F3F41" width="14.152" height="45.128"/>
	<rect x="1837.41" y="1291.465" fill-rule="evenodd" clip-rule="evenodd" fill="#3F3F41" width="14.152" height="45.128"/>
	<rect x="1870.547" y="1292.202" fill-rule="evenodd" clip-rule="evenodd" fill="#3F3F41" width="14.152" height="45.127"/>
	<rect x="3450.841" y="1237.267" fill-rule="evenodd" clip-rule="evenodd" fill="#3F3F41" width="14.152" height="45.128"/>
	<rect x="3483.978" y="1236.927" fill-rule="evenodd" clip-rule="evenodd" fill="#3F3F41" width="14.152" height="45.127"/>
	<rect x="3517.114" y="1237.663" fill-rule="evenodd" clip-rule="evenodd" fill="#3F3F41" width="14.152" height="45.128"/>
	<rect x="3550.25" y="1238.4" fill-rule="evenodd" clip-rule="evenodd" fill="#3F3F41" width="14.153" height="45.128"/>
	<rect x="1770.107" y="1356.945" fill-rule="evenodd" clip-rule="evenodd" fill="#3F3F41" width="14.153" height="45.128"/>
	<rect x="1803.244" y="1356.605" fill-rule="evenodd" clip-rule="evenodd" fill="#3F3F41" width="14.152" height="45.127"/>
	<rect x="1836.381" y="1357.342" fill-rule="evenodd" clip-rule="evenodd" fill="#3F3F41" width="14.152" height="45.128"/>
	<rect x="1869.518" y="1358.079" fill-rule="evenodd" clip-rule="evenodd" fill="#3F3F41" width="14.152" height="45.128"/>
	<rect x="3449.84" y="1303.144" fill-rule="evenodd" clip-rule="evenodd" fill="#3F3F41" width="14.152" height="45.128"/>
	<rect x="3482.977" y="1302.804" fill-rule="evenodd" clip-rule="evenodd" fill="#3F3F41" width="14.152" height="45.127"/>
	<rect x="3516.113" y="1303.541" fill-rule="evenodd" clip-rule="evenodd" fill="#3F3F41" width="14.124" height="45.127"/>
	<rect x="3549.25" y="1304.277" fill-rule="evenodd" clip-rule="evenodd" fill="#3F3F41" width="14.124" height="45.128"/>
	<rect x="2683.896" y="1146.359" fill-rule="evenodd" clip-rule="evenodd" fill="#3F3F41" width="8.033" height="28.205"/>
	<rect x="2702.736" y="1146.161" fill-rule="evenodd" clip-rule="evenodd" fill="#3F3F41" width="8.062" height="28.204"/>
	<rect x="2721.606" y="1146.614" fill-rule="evenodd" clip-rule="evenodd" fill="#3F3F41" width="8.062" height="28.205"/>
	<rect x="2740.476" y="1147.068" fill-rule="evenodd" clip-rule="evenodd" fill="#3F3F41" width="8.034" height="28.204"/>
	<rect x="2683.295" y="1187.547" fill-rule="evenodd" clip-rule="evenodd" fill="#3F3F41" width="8.062" height="28.176"/>
	<rect x="2702.164" y="1187.32" fill-rule="evenodd" clip-rule="evenodd" fill="#3F3F41" width="8.064" height="28.204"/>
	<rect x="2721.034" y="1187.773" fill-rule="evenodd" clip-rule="evenodd" fill="#3F3F41" width="8.034" height="28.205"/>
	<rect x="2739.876" y="1188.256" fill-rule="evenodd" clip-rule="evenodd" fill="#3F3F41" width="8.062" height="28.176"/>
	<rect x="2682.723" y="1228.706" fill-rule="evenodd" clip-rule="evenodd" fill="#3F3F41" width="8.062" height="28.204"/>
	<rect x="2701.593" y="1228.479" fill-rule="evenodd" clip-rule="evenodd" fill="#3F3F41" width="8.062" height="28.204"/>
	<rect x="2720.463" y="1228.961" fill-rule="evenodd" clip-rule="evenodd" fill="#3F3F41" width="8.033" height="28.177"/>
	<rect x="2739.304" y="1229.414" fill-rule="evenodd" clip-rule="evenodd" fill="#3F3F41" width="8.062" height="28.205"/>
	<rect x="980.576" y="1201.72" fill-rule="evenodd" clip-rule="evenodd" fill="#3F3F41" width="8.062" height="28.205"/>
	<rect x="999.445" y="1201.521" fill-rule="evenodd" clip-rule="evenodd" fill="#3F3F41" width="8.034" height="28.205"/>
	<rect x="1018.287" y="1201.976" fill-rule="evenodd" clip-rule="evenodd" fill="#3F3F41" width="8.062" height="28.204"/>
	<rect x="1037.156" y="1202.429" fill-rule="evenodd" clip-rule="evenodd" fill="#3F3F41" width="8.063" height="28.205"/>
	<rect x="980.004" y="1242.907" fill-rule="evenodd" clip-rule="evenodd" fill="#3F3F41" width="8.034" height="28.177"/>
	<rect x="998.845" y="1242.681" fill-rule="evenodd" clip-rule="evenodd" fill="#3F3F41" width="8.063" height="28.205"/>
	<rect x="1017.715" y="1243.134" fill-rule="evenodd" clip-rule="evenodd" fill="#3F3F41" width="8.062" height="28.205"/>
	<rect x="1036.584" y="1243.616" fill-rule="evenodd" clip-rule="evenodd" fill="#3F3F41" width="8.034" height="28.177"/>
	<rect x="979.403" y="1284.066" fill-rule="evenodd" clip-rule="evenodd" fill="#3F3F41" width="8.062" height="28.205"/>
	<rect x="998.273" y="1283.868" fill-rule="evenodd" clip-rule="evenodd" fill="#3F3F41" width="8.063" height="28.177"/>
	<rect x="1017.143" y="1284.321" fill-rule="evenodd" clip-rule="evenodd" fill="#3F3F41" width="8.034" height="28.177"/>
	<rect x="1035.984" y="1284.775" fill-rule="evenodd" clip-rule="evenodd" fill="#3F3F41" width="8.062" height="28.204"/>
	<rect x="2988.357" y="985.947" fill-rule="evenodd" clip-rule="evenodd" fill="#3F3F41" width="5.89" height="27.836"/>
	<rect x="3002.195" y="985.748" fill-rule="evenodd" clip-rule="evenodd" fill="#3F3F41" width="5.918" height="27.809"/>
	<rect x="3016.033" y="986.202" fill-rule="evenodd" clip-rule="evenodd" fill="#3F3F41" width="5.918" height="27.808"/>
	<rect x="3029.899" y="986.655" fill-rule="evenodd" clip-rule="evenodd" fill="#3F3F41" width="5.89" height="27.808"/>
	<rect x="2987.929" y="1026.567" fill-rule="evenodd" clip-rule="evenodd" fill="#3F3F41" width="5.918" height="27.836"/>
	<rect x="3001.767" y="1026.369" fill-rule="evenodd" clip-rule="evenodd" fill="#3F3F41" width="5.918" height="27.836"/>
	<rect x="3015.604" y="1026.822" fill-rule="evenodd" clip-rule="evenodd" fill="#3F3F41" width="5.918" height="27.836"/>
	<rect x="3029.471" y="1027.276" fill-rule="evenodd" clip-rule="evenodd" fill="#3F3F41" width="5.918" height="27.836"/>
	<rect x="2987.5" y="1067.216" fill-rule="evenodd" clip-rule="evenodd" fill="#3F3F41" width="5.918" height="27.808"/>
	<rect x="3001.338" y="1066.989" fill-rule="evenodd" clip-rule="evenodd" fill="#3F3F41" width="5.918" height="27.836"/>
	<rect x="3015.204" y="1067.443" fill-rule="evenodd" clip-rule="evenodd" fill="#3F3F41" width="5.89" height="27.836"/>
	<rect x="3029.042" y="1067.896" fill-rule="evenodd" clip-rule="evenodd" fill="#3F3F41" width="5.918" height="27.836"/>
	<rect x="1285.038" y="1041.308" fill-rule="evenodd" clip-rule="evenodd" fill="#3F3F41" width="5.918" height="27.836"/>
	<rect x="1298.876" y="1041.109" fill-rule="evenodd" clip-rule="evenodd" fill="#3F3F41" width="5.918" height="27.808"/>
	<rect x="1312.742" y="1041.562" fill-rule="evenodd" clip-rule="evenodd" fill="#3F3F41" width="5.89" height="27.808"/>
	<rect x="1326.58" y="1042.016" fill-rule="evenodd" clip-rule="evenodd" fill="#3F3F41" width="5.918" height="27.809"/>
	<rect x="1284.609" y="1081.928" fill-rule="evenodd" clip-rule="evenodd" fill="#3F3F41" width="5.918" height="27.836"/>
	<rect x="1298.447" y="1081.729" fill-rule="evenodd" clip-rule="evenodd" fill="#3F3F41" width="5.918" height="27.836"/>
	<rect x="1312.313" y="1082.183" fill-rule="evenodd" clip-rule="evenodd" fill="#3F3F41" width="5.918" height="27.837"/>
	<rect x="1326.151" y="1082.637" fill-rule="evenodd" clip-rule="evenodd" fill="#3F3F41" width="5.918" height="27.836"/>
	<rect x="1284.18" y="1122.577" fill-rule="evenodd" clip-rule="evenodd" fill="#3F3F41" width="5.918" height="27.836"/>
	<rect x="1298.047" y="1122.35" fill-rule="evenodd" clip-rule="evenodd" fill="#3F3F41" width="5.89" height="27.837"/>
	<rect x="1311.885" y="1122.804" fill-rule="evenodd" clip-rule="evenodd" fill="#3F3F41" width="5.918" height="27.836"/>
	<rect x="1325.723" y="1123.257" fill-rule="evenodd" clip-rule="evenodd" fill="#3F3F41" width="5.918" height="27.837"/>
	<rect x="2986.241" y="1104.719" fill-rule="evenodd" clip-rule="evenodd" fill="#3F3F41" width="5.919" height="27.808"/>
	<rect x="3000.108" y="1104.491" fill-rule="evenodd" clip-rule="evenodd" fill="#3F3F41" width="5.918" height="27.837"/>
	<rect x="3013.946" y="1104.945" fill-rule="evenodd" clip-rule="evenodd" fill="#3F3F41" width="5.918" height="27.836"/>
	<rect x="3027.784" y="1105.399" fill-rule="evenodd" clip-rule="evenodd" fill="#3F3F41" width="5.918" height="27.837"/>
	<rect x="2985.842" y="1145.339" fill-rule="evenodd" clip-rule="evenodd" fill="#3F3F41" width="5.89" height="27.836"/>
	<rect x="2999.68" y="1145.141" fill-rule="evenodd" clip-rule="evenodd" fill="#3F3F41" width="5.918" height="27.808"/>
	<rect x="3013.518" y="1145.594" fill-rule="evenodd" clip-rule="evenodd" fill="#3F3F41" width="5.918" height="27.809"/>
	<rect x="3027.384" y="1146.048" fill-rule="evenodd" clip-rule="evenodd" fill="#3F3F41" width="5.89" height="27.808"/>
	<rect x="2985.412" y="1185.959" fill-rule="evenodd" clip-rule="evenodd" fill="#3F3F41" width="5.89" height="27.837"/>
	<rect x="2999.251" y="1185.761" fill-rule="evenodd" clip-rule="evenodd" fill="#3F3F41" width="5.918" height="27.837"/>
	<rect x="3013.089" y="1186.215" fill-rule="evenodd" clip-rule="evenodd" fill="#3F3F41" width="5.918" height="27.836"/>
	<rect x="3026.955" y="1186.668" fill-rule="evenodd" clip-rule="evenodd" fill="#3F3F41" width="5.89" height="27.836"/>
	<rect x="1282.951" y="1160.079" fill-rule="evenodd" clip-rule="evenodd" fill="#3F3F41" width="5.918" height="27.836"/>
	<rect x="1296.789" y="1159.881" fill-rule="evenodd" clip-rule="evenodd" fill="#3F3F41" width="5.918" height="27.808"/>
	<rect x="1310.626" y="1160.306" fill-rule="evenodd" clip-rule="evenodd" fill="#3F3F41" width="5.918" height="27.837"/>
	<rect x="1324.493" y="1160.76" fill-rule="evenodd" clip-rule="evenodd" fill="#3F3F41" width="5.89" height="27.836"/>
	<rect x="1282.522" y="1200.699" fill-rule="evenodd" clip-rule="evenodd" fill="#3F3F41" width="5.918" height="27.837"/>
	<rect x="1296.36" y="1200.501" fill-rule="evenodd" clip-rule="evenodd" fill="#3F3F41" width="5.918" height="27.836"/>
	<rect x="1310.198" y="1200.955" fill-rule="evenodd" clip-rule="evenodd" fill="#3F3F41" width="5.918" height="27.836"/>
	<rect x="1324.064" y="1201.408" fill-rule="evenodd" clip-rule="evenodd" fill="#3F3F41" width="5.918" height="27.808"/>
	<rect x="1282.093" y="1241.349" fill-rule="evenodd" clip-rule="evenodd" fill="#3F3F41" width="5.918" height="27.808"/>
	<rect x="1295.931" y="1241.121" fill-rule="evenodd" clip-rule="evenodd" fill="#3F3F41" width="5.918" height="27.837"/>
	<rect x="1309.797" y="1241.575" fill-rule="evenodd" clip-rule="evenodd" fill="#3F3F41" width="5.89" height="27.836"/>
	<rect x="1323.635" y="1242.028" fill-rule="evenodd" clip-rule="evenodd" fill="#3F3F41" width="5.918" height="27.837"/>
	<rect x="1917.464" y="1122.18" fill-rule="evenodd" clip-rule="evenodd" fill="#3F3F41" width="14.152" height="27.836"/>
	<rect x="1950.658" y="1121.982" fill-rule="evenodd" clip-rule="evenodd" fill="#3F3F41" width="14.181" height="27.836"/>
	<rect x="1983.852" y="1122.435" fill-rule="evenodd" clip-rule="evenodd" fill="#3F3F41" width="14.181" height="27.837"/>
	<rect x="2017.045" y="1122.889" fill-rule="evenodd" clip-rule="evenodd" fill="#3F3F41" width="14.181" height="27.836"/>
	<rect x="1916.435" y="1162.829" fill-rule="evenodd" clip-rule="evenodd" fill="#3F3F41" width="14.181" height="27.808"/>
	<rect x="1949.629" y="1162.602" fill-rule="evenodd" clip-rule="evenodd" fill="#3F3F41" width="14.181" height="27.837"/>
	<rect x="1982.822" y="1163.056" fill-rule="evenodd" clip-rule="evenodd" fill="#3F3F41" width="14.181" height="27.836"/>
	<rect x="2016.045" y="1163.509" fill-rule="evenodd" clip-rule="evenodd" fill="#3F3F41" width="14.152" height="27.837"/>
	<rect x="1915.406" y="1203.449" fill-rule="evenodd" clip-rule="evenodd" fill="#3F3F41" width="14.181" height="27.836"/>
	<rect x="1948.6" y="1203.251" fill-rule="evenodd" clip-rule="evenodd" fill="#3F3F41" width="14.181" height="27.808"/>
	<rect x="1981.822" y="1203.704" fill-rule="evenodd" clip-rule="evenodd" fill="#3F3F41" width="14.181" height="27.808"/>
	<rect x="2015.016" y="1204.158" fill-rule="evenodd" clip-rule="evenodd" fill="#3F3F41" width="14.181" height="27.808"/>
	<rect x="3597.168" y="1068.378" fill-rule="evenodd" clip-rule="evenodd" fill="#3F3F41" width="14.181" height="27.837"/>
	<rect x="3630.361" y="1068.18" fill-rule="evenodd" clip-rule="evenodd" fill="#3F3F41" width="14.181" height="27.836"/>
	<rect x="3663.556" y="1068.634" fill-rule="evenodd" clip-rule="evenodd" fill="#3F3F41" width="14.181" height="27.836"/>
	<rect x="3696.777" y="1069.087" fill-rule="evenodd" clip-rule="evenodd" fill="#3F3F41" width="14.153" height="27.836"/>
	<rect x="3596.139" y="1109.027" fill-rule="evenodd" clip-rule="evenodd" fill="#3F3F41" width="14.181" height="27.808"/>
	<rect x="3629.332" y="1108.801" fill-rule="evenodd" clip-rule="evenodd" fill="#3F3F41" width="14.182" height="27.836"/>
	<rect x="3662.555" y="1109.254" fill-rule="evenodd" clip-rule="evenodd" fill="#3F3F41" width="14.181" height="27.836"/>
	<rect x="3695.748" y="1109.707" fill-rule="evenodd" clip-rule="evenodd" fill="#3F3F41" width="14.182" height="27.837"/>
	<rect x="3595.109" y="1149.647" fill-rule="evenodd" clip-rule="evenodd" fill="#3F3F41" width="14.181" height="27.836"/>
	<rect x="3628.331" y="1149.449" fill-rule="evenodd" clip-rule="evenodd" fill="#3F3F41" width="14.182" height="27.808"/>
	<rect x="3661.525" y="1149.902" fill-rule="evenodd" clip-rule="evenodd" fill="#3F3F41" width="14.181" height="27.809"/>
	<rect x="3694.72" y="1150.357" fill-rule="evenodd" clip-rule="evenodd" fill="#3F3F41" width="14.181" height="27.808"/>
	<rect x="2080.86" y="999.298" fill-rule="evenodd" clip-rule="evenodd" fill="#3F3F41" width="8.663" height="27.808"/>
	<rect x="2101.102" y="999.071" fill-rule="evenodd" clip-rule="evenodd" fill="#3F3F41" width="8.663" height="27.836"/>
	<rect x="2121.344" y="999.524" fill-rule="evenodd" clip-rule="evenodd" fill="#3F3F41" width="8.663" height="27.837"/>
	<rect x="2141.586" y="999.979" fill-rule="evenodd" clip-rule="evenodd" fill="#3F3F41" width="8.663" height="27.836"/>
	<rect x="2080.26" y="1039.918" fill-rule="evenodd" clip-rule="evenodd" fill="#3F3F41" width="8.634" height="27.837"/>
	<rect x="2100.502" y="1039.72" fill-rule="evenodd" clip-rule="evenodd" fill="#3F3F41" width="8.634" height="27.809"/>
	<rect x="2120.744" y="1040.174" fill-rule="evenodd" clip-rule="evenodd" fill="#3F3F41" width="8.634" height="27.808"/>
	<rect x="2140.986" y="1040.627" fill-rule="evenodd" clip-rule="evenodd" fill="#3F3F41" width="8.634" height="27.808"/>
	<rect x="2079.63" y="1080.539" fill-rule="evenodd" clip-rule="evenodd" fill="#3F3F41" width="8.635" height="27.836"/>
	<rect x="2099.873" y="1080.341" fill-rule="evenodd" clip-rule="evenodd" fill="#3F3F41" width="8.634" height="27.836"/>
	<rect x="2120.115" y="1080.794" fill-rule="evenodd" clip-rule="evenodd" fill="#3F3F41" width="8.634" height="27.836"/>
	<rect x="2140.357" y="1081.248" fill-rule="evenodd" clip-rule="evenodd" fill="#3F3F41" width="8.634" height="27.836"/>
	<rect x="3760.593" y="945.496" fill-rule="evenodd" clip-rule="evenodd" fill="#3F3F41" width="8.634" height="27.809"/>
	<rect x="3780.835" y="945.27" fill-rule="evenodd" clip-rule="evenodd" fill="#3F3F41" width="8.634" height="27.836"/>
	<rect x="3801.077" y="945.723" fill-rule="evenodd" clip-rule="evenodd" fill="#3F3F41" width="8.634" height="27.837"/>
	<rect x="3821.319" y="946.177" fill-rule="evenodd" clip-rule="evenodd" fill="#3F3F41" width="8.634" height="27.836"/>
	<rect x="3759.963" y="986.117" fill-rule="evenodd" clip-rule="evenodd" fill="#3F3F41" width="8.635" height="27.836"/>
	<rect x="3780.205" y="985.918" fill-rule="evenodd" clip-rule="evenodd" fill="#3F3F41" width="8.635" height="27.809"/>
	<rect x="3800.447" y="986.372" fill-rule="evenodd" clip-rule="evenodd" fill="#3F3F41" width="8.635" height="27.808"/>
	<rect x="3820.69" y="986.825" fill-rule="evenodd" clip-rule="evenodd" fill="#3F3F41" width="8.634" height="27.809"/>
	<rect x="3759.334" y="1026.737" fill-rule="evenodd" clip-rule="evenodd" fill="#3F3F41" width="8.635" height="27.836"/>
	<rect x="3779.576" y="1026.539" fill-rule="evenodd" clip-rule="evenodd" fill="#3F3F41" width="8.635" height="27.836"/>
	<rect x="3799.818" y="1026.992" fill-rule="evenodd" clip-rule="evenodd" fill="#3F3F41" width="8.635" height="27.837"/>
	<rect x="3820.061" y="1027.446" fill-rule="evenodd" clip-rule="evenodd" fill="#3F3F41" width="8.663" height="27.836"/>
	<rect x="1915.92" y="1243.673" fill-rule="evenodd" clip-rule="evenodd" fill="#3F3F41" width="14.181" height="27.808"/>
	<rect x="1949.114" y="1243.446" fill-rule="evenodd" clip-rule="evenodd" fill="#3F3F41" width="14.181" height="27.836"/>
	<rect x="1982.308" y="1243.899" fill-rule="evenodd" clip-rule="evenodd" fill="#3F3F41" width="14.181" height="27.836"/>
	<rect x="2015.501" y="1244.354" fill-rule="evenodd" clip-rule="evenodd" fill="#3F3F41" width="14.181" height="27.836"/>
	<rect x="1914.891" y="1284.293" fill-rule="evenodd" clip-rule="evenodd" fill="#3F3F41" width="14.181" height="27.837"/>
	<rect x="1948.085" y="1284.095" fill-rule="evenodd" clip-rule="evenodd" fill="#3F3F41" width="14.181" height="27.808"/>
	<rect x="1981.307" y="1284.549" fill-rule="evenodd" clip-rule="evenodd" fill="#3F3F41" width="14.152" height="27.808"/>
	<rect x="2014.501" y="1285.002" fill-rule="evenodd" clip-rule="evenodd" fill="#3F3F41" width="14.181" height="27.808"/>
	<rect x="1913.862" y="1324.914" fill-rule="evenodd" clip-rule="evenodd" fill="#3F3F41" width="14.181" height="27.836"/>
	<rect x="1947.084" y="1324.715" fill-rule="evenodd" clip-rule="evenodd" fill="#3F3F41" width="14.152" height="27.837"/>
	<rect x="1980.278" y="1325.169" fill-rule="evenodd" clip-rule="evenodd" fill="#3F3F41" width="14.181" height="27.836"/>
	<rect x="2013.472" y="1325.622" fill-rule="evenodd" clip-rule="evenodd" fill="#3F3F41" width="14.181" height="27.837"/>
	<rect x="3595.624" y="1189.871" fill-rule="evenodd" clip-rule="evenodd" fill="#3F3F41" width="14.181" height="27.808"/>
	<rect x="3628.817" y="1189.645" fill-rule="evenodd" clip-rule="evenodd" fill="#3F3F41" width="14.182" height="27.836"/>
	<rect x="3662.04" y="1190.098" fill-rule="evenodd" clip-rule="evenodd" fill="#3F3F41" width="14.152" height="27.837"/>
	<rect x="3695.233" y="1190.552" fill-rule="evenodd" clip-rule="evenodd" fill="#3F3F41" width="14.182" height="27.836"/>
	<rect x="3594.595" y="1230.492" fill-rule="evenodd" clip-rule="evenodd" fill="#3F3F41" width="14.181" height="27.836"/>
	<rect x="3627.817" y="1230.293" fill-rule="evenodd" clip-rule="evenodd" fill="#3F3F41" width="14.152" height="27.809"/>
	<rect x="3661.011" y="1230.747" fill-rule="evenodd" clip-rule="evenodd" fill="#3F3F41" width="14.181" height="27.808"/>
	<rect x="3694.204" y="1231.2" fill-rule="evenodd" clip-rule="evenodd" fill="#3F3F41" width="14.182" height="27.808"/>
	<rect x="3593.594" y="1271.112" fill-rule="evenodd" clip-rule="evenodd" fill="#3F3F41" width="14.152" height="27.836"/>
	<rect x="3626.788" y="1270.914" fill-rule="evenodd" clip-rule="evenodd" fill="#3F3F41" width="14.181" height="27.836"/>
	<rect x="3659.981" y="1271.367" fill-rule="evenodd" clip-rule="evenodd" fill="#3F3F41" width="14.181" height="27.836"/>
	<rect x="3693.175" y="1271.82" fill-rule="evenodd" clip-rule="evenodd" fill="#3F3F41" width="14.182" height="27.837"/>
	<rect x="2079.945" y="1120.763" fill-rule="evenodd" clip-rule="evenodd" fill="#3F3F41" width="8.634" height="27.836"/>
	<rect x="2100.188" y="1120.565" fill-rule="evenodd" clip-rule="evenodd" fill="#3F3F41" width="8.634" height="27.808"/>
	<rect x="2120.43" y="1121.018" fill-rule="evenodd" clip-rule="evenodd" fill="#3F3F41" width="8.634" height="27.808"/>
	<rect x="2140.672" y="1121.471" fill-rule="evenodd" clip-rule="evenodd" fill="#3F3F41" width="8.634" height="27.809"/>
	<rect x="2079.316" y="1161.383" fill-rule="evenodd" clip-rule="evenodd" fill="#3F3F41" width="8.635" height="27.836"/>
	<rect x="2099.558" y="1161.185" fill-rule="evenodd" clip-rule="evenodd" fill="#3F3F41" width="8.635" height="27.836"/>
	<rect x="2119.8" y="1161.638" fill-rule="evenodd" clip-rule="evenodd" fill="#3F3F41" width="8.635" height="27.837"/>
	<rect x="2140.043" y="1162.092" fill-rule="evenodd" clip-rule="evenodd" fill="#3F3F41" width="8.634" height="27.836"/>
	<rect x="2078.687" y="1202.032" fill-rule="evenodd" clip-rule="evenodd" fill="#3F3F41" width="8.634" height="27.808"/>
	<rect x="2098.929" y="1201.805" fill-rule="evenodd" clip-rule="evenodd" fill="#3F3F41" width="8.634" height="27.837"/>
	<rect x="2119.171" y="1202.259" fill-rule="evenodd" clip-rule="evenodd" fill="#3F3F41" width="8.634" height="27.836"/>
	<rect x="2139.414" y="1202.712" fill-rule="evenodd" clip-rule="evenodd" fill="#3F3F41" width="8.635" height="27.837"/>
	<rect x="3759.648" y="1066.961" fill-rule="evenodd" clip-rule="evenodd" fill="#3F3F41" width="8.635" height="27.836"/>
	<rect x="3779.891" y="1066.763" fill-rule="evenodd" clip-rule="evenodd" fill="#3F3F41" width="8.635" height="27.808"/>
	<rect x="3800.133" y="1067.216" fill-rule="evenodd" clip-rule="evenodd" fill="#3F3F41" width="8.635" height="27.808"/>
	<rect x="3820.375" y="1067.67" fill-rule="evenodd" clip-rule="evenodd" fill="#3F3F41" width="8.635" height="27.808"/>
	<rect x="3759.02" y="1107.581" fill-rule="evenodd" clip-rule="evenodd" fill="#3F3F41" width="8.635" height="27.837"/>
	<rect x="3779.262" y="1107.383" fill-rule="evenodd" clip-rule="evenodd" fill="#3F3F41" width="8.635" height="27.836"/>
	<rect x="3799.504" y="1107.837" fill-rule="evenodd" clip-rule="evenodd" fill="#3F3F41" width="8.635" height="27.836"/>
	<rect x="3819.746" y="1108.29" fill-rule="evenodd" clip-rule="evenodd" fill="#3F3F41" width="8.635" height="27.836"/>
	<rect x="3758.391" y="1148.23" fill-rule="evenodd" clip-rule="evenodd" fill="#3F3F41" width="8.663" height="27.808"/>
	<rect x="3778.633" y="1148.004" fill-rule="evenodd" clip-rule="evenodd" fill="#3F3F41" width="8.663" height="27.836"/>
	<rect x="3798.875" y="1148.457" fill-rule="evenodd" clip-rule="evenodd" fill="#3F3F41" width="8.663" height="27.836"/>
	<rect x="3819.117" y="1148.91" fill-rule="evenodd" clip-rule="evenodd" fill="#3F3F41" width="8.663" height="27.837"/>
	<path fill-rule="evenodd" clip-rule="evenodd" fill="#FFFFFF" d="M4348.331,1596.133c15.554,3.033-2.23,8.73,13.037,11.707
		c15.039,2.92,148.129-4.62,162.539-1.843c56.952-4.989,42.771-3.741,95.063-8.334c49.49-4.309,47.433-4.11,93.263-8.078
		c22.844-1.984,45.402-3.969,67.389-5.868c21.157-1.843,42.057-3.6,62.413-5.357c20.157-1.729,40.027-3.43,59.526-5.102
		l286.765-0.198v-20.75l-275.5-0.085c-19.385,1.475-39.112,2.976-59.24,4.508c-20.929,1.615-42.286,3.26-64.043,4.932
		c-21.929,1.701-44.373,3.431-67.274,5.188c-23.844,1.843-48.146,3.742-72.935,5.67c-49.748,3.883-101.611,7.937-155.419,12.16
		C4436.705,1589.159,4410.401,1591.2,4348.331,1596.133L4348.331,1596.133z"/>
	<path fill-rule="evenodd" clip-rule="evenodd" fill="#999999" d="M1973.988,1035.1c0.572,0.198,1.144,0.368,1.715,0.538
		c0.572,0.171,1.144,0.341,1.687,0.511c0.029,14.201,0.029,28.034,0.029,41.442c0,13.039,0,25.738,0,38.069
		c-0.515,0-1.029,0-1.573,0c-0.515,0-1.029,0-1.572,0c-0.029-12.473-0.086-25.314-0.143-38.551
		C1974.103,1063.531,1974.045,1049.528,1973.988,1035.1L1973.988,1035.1z"/>
</g>
</svg>
