<?xml version="1.0" encoding="utf-8"?>
<!-- Generator: Adobe Illustrator 17.1.0, SVG Export Plug-In . SVG Version: 6.00 Build 0)  -->
<!DOCTYPE svg PUBLIC "-//W3C//DTD SVG 1.1//EN" "http://www.w3.org/Graphics/SVG/1.1/DTD/svg11.dtd">
<svg version="1.1" xmlns="http://www.w3.org/2000/svg" xmlns:xlink="http://www.w3.org/1999/xlink" x="0px" y="0px"
	 viewBox="0 0 408.755 320.111" enable-background="new 0 0 408.755 320.111" xml:space="preserve">
<g id="Layer_3">
</g>
<g id="Layer_2">
	<g>
		<g>
			<g>
				<path fill="#D2E3ED" d="M159.927,97.814c-4.011-20.026-5.923-41.689,3.32-45.645c17.898-7.686,102.521,56.051,102.521,56.051
					l-68.337,18.227l-18.579-33.74L159.927,97.814z"/>
			</g>
			<path fill="#B5CBDA" d="M237.333,112.264c0,0-60.121-63.6-72.777-56.442c-12.65,7.155,7.412,74.74,7.412,74.74L237.333,112.264z"
				/>
			<g>
				<path fill="#005898" d="M159.927,97.814l18.924-5.107l18.579,33.74l-28.126,7.505
					C169.305,133.953,163.695,116.593,159.927,97.814z"/>
			</g>
			<polygon fill="#64ACD0" points="177.106,95.757 193.394,124.629 172.796,130.07 165.421,99.484 			"/>
			<g>
				<path fill="#D2E3ED" d="M63.344,142.812c88.139-6.258,185.394-43.142,228.505-41.092c22.952,1.095,39.847,13.095,51.165,25.122
					c0.457,0.481,0.878,0.968,1.319,1.455c-32.342,16.466-70.459,18.703-70.459,18.703s-8.741,25.233,21.648,28.563
					c30.406,3.335,65.168-23.276,65.168-23.276c-20.175,39.6-3.4,67.902,3.152,76.663c-57.417,20.769-165.872,20.326-304.274-16.164
					C57.406,192.732,58.689,160.584,63.344,142.812z"/>
				<path fill="none" d="M364.235,230.028c-29.744,10.755-72.874,15.811-126.6,13.262l0,0
					c-50.785-2.417-111.027-11.652-178.353-29.401l0,0c-0.46-0.124-0.791-0.512-0.842-0.982l0,0
					c-1.076-9.966-1.299-22.826-0.708-35.458l0,0c0.627-13.019,2.123-25.784,4.512-34.932l0,0c0.124-0.469,0.531-0.821,1.024-0.852
					l0.084,1.14l1.105,0.287l-1.105-0.287l-0.084-1.14l0,0c87.958-6.222,184.99-43.106,228.636-41.091l0,0
					c23.343,1.114,40.514,13.324,51.946,25.483l0,0c0.478,0.5,0.899,0.991,1.326,1.46l0,0c0.249,0.265,0.355,0.633,0.286,0.979l0,0
					c-0.067,0.352-0.29,0.654-0.608,0.814l0,0c-29.888,15.201-64.465,18.339-70.107,18.771l0,0
					c-0.279,1.013-0.744,3.021-0.865,5.533l0,0c-0.195,7.418,1.956,18.497,21.771,20.802l0,0c0.963,0.108,1.92,0.18,2.893,0.226l0,0
					c14.487,0.701,29.901-5.085,41.648-11.095l0,0c11.741-6.006,19.776-12.167,19.803-12.17l0,0
					c0.417-0.327,1.009-0.313,1.427,0.023l0,0c0.41,0.339,0.524,0.922,0.281,1.402l0,0c-6.316,12.406-8.944,23.639-9.414,33.489l0,0
					c-1.017,21.24,8.089,36.106,12.467,41.972l0,0c0.225,0.29,0.286,0.67,0.171,1.008l0,0
					C364.837,229.627,364.576,229.903,364.235,230.028L364.235,230.028z M237.741,240.999c52.662,2.511,95.02-2.358,124.282-12.616
					l0,0c-4.795-6.806-12.999-21.598-12.024-42.198l0,0c0.433-9.085,2.658-19.288,7.722-30.388l0,0
					c-9.336,6.383-35.023,22.235-59.281,21.132l0,0c-1.011-0.048-2.022-0.121-3.036-0.226l0,0
					c-20.862-2.169-24.333-15.176-23.806-23.199l0,0c0.192-3.969,1.168-6.82,1.193-6.878l0,0c0.156-0.443,0.559-0.752,1.013-0.777
					l0,0c0.028,0.003,9.454-0.55,22.956-3.155l0,0c13.125-2.526,30.057-7.004,45.718-14.75l0,0
					c-0.102-0.105-0.191-0.209-0.291-0.315l0,0c-11.21-11.905-27.824-23.696-50.391-24.77l0,0
					c-42.448-2.077-139.454,34.573-227.547,41.03l0,0c-2.203,8.839-3.63,21.146-4.224,33.672l0,0
					c-0.58,12.203-0.389,24.632,0.609,34.32l0,0C127.505,229.454,187.347,238.606,237.741,240.999L237.741,240.999z"/>
			</g>
			<path fill="#B5CBDA" d="M59.457,168.516c55.863,7.007,189.75,22.105,291.614,20.07c-0.199,14.22,4.007,25.444,8.025,32.892
				c-85.927,38.531-241.123,4.954-299.945-13.395C58.262,196.437,58.371,181.897,59.457,168.516z"/>
			<g>
				<path fill="#045192" d="M162.045,233.812l0.008,0.005c4.059-16.814,39.539-13.378,63.664-8.963
					c-10.415,10.217-14.466,31.356-11.684,44.785c-23.512-6.738-55.694-19.109-52.004-35.713l-0.011-0.008
					c-0.002-0.018,0.005-0.027,0.012-0.052C162.028,233.855,162.037,233.827,162.045,233.812z"/>
			</g>
			<g>
				<path fill="#24659D" d="M225.717,224.854c12.811,2.344,22.433,4.95,22.433,4.95l-5.281,22.749l-0.026,0.115l-5.27,22.741
					c0,0-10.429-2.009-23.54-5.771C211.25,256.21,215.302,235.071,225.717,224.854z"/>
			</g>
			<g>
				<path fill="#91A5AF" d="M231.219,249.969c-2.919,12.628-0.096,24.065,6.327,25.548c6.421,1.493,13.987-7.537,16.917-20.16
					c2.934-12.622,0.097-24.062-6.314-25.553C241.726,228.318,234.152,237.348,231.219,249.969z"/>
			</g>
			<g>
				<path fill="#2C3942" d="M238.269,251.04c-1.519,6.565-0.334,12.44,2.632,13.128c2.974,0.687,6.602-4.084,8.11-10.641
					c1.513-6.572,0.342-12.445-2.627-13.127C243.417,239.707,239.785,244.479,238.269,251.04z"/>
			</g>
			<g>
				<path fill="#045192" d="M113.889,277.593l0.009,0.001c4.059-16.811,39.538-13.379,63.663-8.96
					c-10.414,10.218-14.465,31.362-11.674,44.784c-23.521-6.738-55.707-19.113-52.015-35.71l-0.009-0.004
					c0.008-0.017,0.007-0.035,0.014-0.056C113.881,277.63,113.889,277.602,113.889,277.593z"/>
			</g>
			<g>
				<path fill="#24659D" d="M177.561,268.634c12.821,2.338,22.433,4.951,22.433,4.951l-5.271,22.743l-0.027,0.111l-5.281,22.75
					c0,0-10.42-2.014-23.529-5.77C163.096,299.996,167.147,278.852,177.561,268.634z"/>
			</g>
			<g>
				<path fill="#91A5AF" d="M182.949,294.098c-2.989,12.807-0.204,24.371,6.213,25.856c6.423,1.476,14.052-7.702,17.036-20.499
					c2.995-12.804,0.208-24.373-6.209-25.855C193.562,272.118,185.934,281.299,182.949,294.098z"/>
			</g>
			<g>
				<path fill="#2C3942" d="M188.882,295.095c-1.466,6.309-0.045,12.038,3.162,12.778c3.209,0.744,6.996-3.764,8.463-10.079
					c1.463-6.321,0.045-12.033-3.165-12.776C194.131,284.274,190.345,288.783,188.882,295.095z"/>
			</g>
			<g>
				<path fill="#26333B" d="M227.462,164.075c-0.132,2.872,2.089,5.308,4.947,5.446l15.958,0.758
					c2.868,0.138,5.307-2.077,5.452-4.95l0.751-15.945c0.132-2.872-2.08-5.316-4.949-5.455l-15.956-0.757
					c-2.858-0.134-5.306,2.086-5.439,4.958L227.462,164.075z"/>
			</g>
			<g>
				<path fill="#26333B" d="M187.318,162.166c-0.133,2.872,2.092,5.311,4.959,5.446l15.954,0.759
					c2.869,0.136,5.308-2.081,5.442-4.953l0.761-15.944c0.135-2.874-2.08-5.316-4.958-5.457l-15.946-0.756
					c-2.868-0.14-5.315,2.085-5.451,4.958L187.318,162.166z"/>
			</g>
			<g>
				<path fill="#26333B" d="M146.879,160.242c-0.132,2.873,2.089,5.313,4.958,5.446l15.947,0.762
					c2.876,0.134,5.314-2.082,5.447-4.954l0.765-15.95c0.132-2.868-2.083-5.316-4.961-5.451l-15.944-0.759
					c-2.869-0.136-5.316,2.09-5.45,4.961L146.879,160.242z"/>
			</g>
			<g>
				<defs>
					<path id="SVGID_1_" d="M24.764,4.779L0,0l38.764,147.042l104.891,0.998c0,0-7.929-6.465-9.765-15.531l-27.272-13.402
						L24.764,4.779z"/>
				</defs>
				<clipPath id="SVGID_2_">
					<use xlink:href="#SVGID_1_"  overflow="visible"/>
				</clipPath>
				
					<linearGradient id="SVGID_3_" gradientUnits="userSpaceOnUse" x1="279.1896" y1="127.986" x2="463.653" y2="127.986" gradientTransform="matrix(-0.944 -0.33 -0.33 0.944 459.7246 89.9508)">
					<stop  offset="0" style="stop-color:#007FD3"/>
					<stop  offset="1" style="stop-color:#004F90"/>
				</linearGradient>
				<path clip-path="url(#SVGID_2_)" fill="url(#SVGID_3_)" d="M24.764,4.779L0,0l38.764,147.042l104.891,0.998
					c0,0-7.929-6.465-9.765-15.531l-27.272-13.402L24.764,4.779z"/>
				<g clip-path="url(#SVGID_2_)">
					<path fill="#FFFFFF" d="M16.371,111.666l5.05,6.455c0.911-0.661,1.779-1.377,2.633-2.154l-7.682-8.178V111.666z"/>
					<path fill="#FFFFFF" d="M17.977,102.387c0.47-0.425,1.169-1.27,1.521-1.788c-0.523-0.34-2.063-1.103-3.127-1.582v2.377
						C16.384,101.401,17.276,101.92,17.977,102.387z"/>
					<path fill="#FFFFFF" d="M96.674,118.875c-3.676-15.57-13.871-30.377-28.324-39.518c-13.658-8.697-31.006-12.11-48.057-8.601
						l-3.921,0.966v1.583c7.211-1.695,15.383-1.244,20.711,4.142c1.004,0.992,1.662,2.093,2.281,3.226
						c3.51,7.329,0.767,15.958-2.855,22.333c-4.44,7.962-12.336,15.476-20.137,20.054v32.836c2.972-0.946,5.796-2.022,8.63-3.314
						l2.148,3.845H16.371v0.008h27.999c1.7-1.076,3.115-2.331,4.232-3.13c0.679,1.067,1.99,3.039,2.049,3.13h7.665
						c-0.02-0.026-3.188-4.238-5.282-6.78c3.558-2.988,6.049-5.682,9.026-9.149c1.966,2.116,3.73,4.344,5.612,6.513
						c1.551-1.709,3.059-3.468,4.375-5.313c-1.858-2.183-3.736-4.359-5.765-6.439c2.22-3.018,4.752-6.94,5.999-9.367
						c2.031,1.784,4.064,3.867,5.927,5.873c1.151-2.104,2.108-4.267,2.913-6.601c-1.844-2.019-3.95-4.017-5.874-5.551
						c1.093-2.61,2.035-5.554,2.494-8.155c1.882,1.315,3.796,2.891,5.634,4.679c0.461-2.814,0.681-5.813,0.521-8.855
						c-1.675-1.489-3.483-2.767-5.214-3.979c-0.042-1.73-0.097-3.214-0.34-4.859c1.54,0.836,3.077,1.826,4.587,2.779
						C82.08,97.6,80.532,94.27,78.59,91.104l-2.737-1.261c-0.567-1.274-1.25-2.522-1.967-3.739l0,0h0l0,0l2.099,0.787
						c7.566,8.27,10.563,19.4,8.415,30.832c-1.982,10.901-7.66,20.284-14.838,29.068c-2.914,3.363-6.12,6.689-9.446,9.642h2.195
						c2.62-2.296,4.787-4.844,6.939-7.353c1.542,2.015,3.123,4.041,4.606,6.081c1.571-1.76,3.021-3.622,4.362-5.508
						c-1.418-2.026-2.919-4.029-4.547-5.95c2.403-3.188,4.575-6.659,6.425-10.074c1.864,2.195,2.877,3.687,4.305,5.531
						c1.204-2.245,2.332-4.932,2.917-6.934c-1.004-1.554-2.587-3.684-4.146-5.368c1.091-2.538,1.998-6.344,2.39-8.759
						c1.776,1.77,2.788,2.868,3.924,4.38c0.57-3.263,0.57-6.804,0.396-10.125c-1.018-1.235-2.323-2.414-3.516-3.315
						c-0.071-2.039-0.326-3.857-0.65-5.813l2.531,1.916l0.025-0.051c-1.346-4.816-3.958-9.145-7.238-13.178l0.034-0.084l0,0
						c0.822,0.561,1.534,1.52,2.22,2.28c7.334,8.581,9.214,20.629,6.837,32.01c-2.305,11.298-7.949,21.289-15.73,30.316h8.164
						l-2.837-4.575c2.369-3.331,4.558-6.787,6.384-10.339c0.783,1.076,1.49,2.434,2.251,3.665c1.127-2.326,2.281-5.246,2.881-7.362
						l-2.028-3.524c1.15-3.222,1.933-6.164,2.483-9.326l1.834,2.26c0.695-3.44,0.883-6.793,0.771-10.12c0,0-1.075-1.655-1.97-2.628
						c-0.274-2.861-0.474-4.66-0.948-6.833l0.284,0.279c2.01,4.445,3.683,9.091,3.449,14.42
						c-0.47,12.732-5.055,23.931-11.897,34.081H84.8c1.802-2.674,3.599-5.887,5.114-8.905c0.452,0.738,0.956,1.691,1.216,2.493
						c1.125-2.633,2-5.143,2.685-7.486l-0.844-2.336c1.209-3.231,2.055-6.473,2.636-9.962l0.541,0.737
						c0.31-1.621,0.427-3.352,0.659-5.063l0-0.001h0.02c0.602,5.356-0.483,10.578-1.674,15.469
						c-1.429,5.224-3.349,10.292-5.824,15.055h1.463c0,0,1.028-2.187,1.705-3.553c0.14,0.364,0.308,0.698,0.481,1.04
						c1.437-4.393,3.157-10.546,4.107-15.538c-0.559,6.517-1.968,13.333-3.97,18.051h1.328
						C98.765,145.124,99.727,131.137,96.674,118.875z M16.371,135.416l1.21,2.374c1.186-0.511,1.939-0.871,2.862-1.464l-4.071-8.142
						v-3.683c2.563-1.323,4.095-2.39,6.603-4.357c1.787,2.485,4.856,6.446,7.407,9.579c1.279-0.882,2.341-1.783,3.422-2.917
						c-2.101-2.604-5.465-6.365-8.036-8.995c2.323-1.799,3.899-3.457,5.741-5.676c0,0,6.266,4.985,9.319,7.524
						c0.824-0.999,2.197-2.677,3.152-4.076c-3.184-2.398-6.388-4.633-9.781-6.696c1.258-1.686,2.597-3.739,3.651-5.664
						c3.479,1.485,6.995,3.362,10.411,5.282c0.754-1.343,1.568-3.156,2.129-4.772c-3.409-1.691-6.97-3.261-10.578-4.467
						c0.649-1.426,1.14-2.915,1.509-4.426c3.684,0.748,8.042,2.038,10.766,3.011c0.458-1.68,0.713-3.853,0.76-5.598
						c-3.433-0.885-6.983-1.547-10.644-1.928c0.091-0.927,0.132-1.874,0.098-2.864c3.078,0.148,7.018,0.704,10.363,1.363
						c-0.152-1.781-0.53-3.486-1.187-5.063c-2.004-0.291-6.78-0.507-9.711-0.383c-0.142-0.646-0.476-1.724-0.719-2.147
						c2.359-0.256,6.208-0.304,9.105-0.111c-0.74-1.438-1.832-2.828-3.163-3.979c-2.636,0.101-5.683,0.45-7.765,0.829
						c-0.384-0.573-0.814-1.099-1.321-1.541c2.148-0.498,4.812-0.883,6.772-1.091c-1.65-1.207-4.31-2.439-5.346-2.741
						c-1.158,0.231-3.537,0.862-4.669,1.274c-0.519-0.336-1.28-0.718-1.88-0.943c1.053-0.436,2.558-0.925,3.432-1.165
						c-2.667-0.588-5.683-0.688-8.541-0.477l-0.309,0.153l-2.175-0.249c6.17-1.058,13.054-0.635,18.293,2.258
						c3.503,1.794,6.8,5.094,8.433,8.632c2.781,5.379,2.485,12.804,0.784,18.574c-4.645,16.694-20.625,32.068-36.323,39.04V135.416z
						 M16.373,154.631v-13.468c0,0,1.17-0.413,2.332-1.052c1.203,2.575,3.462,7.089,5.339,10.205
						c1.066-0.391,2.132-0.979,3.154-1.605c0,0-3.976-7.396-5.577-10.125c4.043-2.148,6.805-4.065,10.259-6.804
						c1.438,1.806,7.279,9.297,7.279,9.297c1.462-1.051,2.89-2.226,4.033-3.366c0,0-5.72-6.891-7.646-8.916
						c2.525-2.118,5.032-4.944,7.151-7.504c2.999,2.528,6.603,5.767,8.76,8.04c1.466-1.548,2.77-3.24,3.742-4.705
						c-2.956-2.672-6.097-5.189-9.164-7.603c1.757-2.274,3.242-4.77,4.413-7.205c3.443,1.91,6.747,4.103,10.046,6.36
						c1.072-1.753,1.997-3.712,2.63-5.515c-3.36-2.193-6.881-4.048-10.431-5.871c0.718-1.961,1.333-3.976,1.802-6.052
						c3.701,1.255,7.259,2.976,10.743,4.715c0.529-2.131,0.779-4.375,0.763-6.73c-3.469-1.57-7.045-2.8-10.71-3.859
						c-0.007-1.162-0.016-2.341-0.105-3.488c3.555,0.723,7.019,1.868,10.4,3.073c-0.33-2.332-1.099-4.538-2.11-6.63
						c-3.067-0.775-6.214-1.356-9.393-1.822c-0.315-0.909-0.693-1.787-1.064-2.637c2.861,0.248,6.067,0.706,8.4,1.242
						c-1.134-2.023-3.163-3.985-5.159-5.449c-2.01-0.133-4.053-0.178-6.161-0.138c-0.565-0.626-1.253-1.307-1.903-1.887
						c1.558-0.129,3.171-0.105,4.731-0.118c-2.875-1.568-6.079-2.685-9.432-3.24l-0.369,0.063c-0.655-0.285-1.308-0.589-1.991-0.812
						c6.024,0.707,11.781,2.092,16.425,6.07c7.658,6.14,10.853,15.227,9.232,24.871c-2.032,12.099-8.878,22.224-17.531,31.602
						C39.768,143.685,28.548,150.675,16.373,154.631z M76.321,112.058c-4.366,17.755-18.536,33.661-34.222,44.372H31.834
						l-3.311-5.525c4.139-2.26,8.278-4.765,12.174-7.804l6.311,8.145c1.49-1.094,2.881-2.296,4.374-3.574
						c-2.169-3.127-5.153-6.608-6.532-8.047c2.994-2.52,5.865-5.595,8.407-8.526c2.44,2.4,4.843,4.971,7.179,7.475
						c1.57-1.623,2.915-3.351,4.116-5.09c-2.453-2.538-4.901-4.855-7.469-7.223c2.289-2.811,3.966-5.513,5.482-8.51
						c2.672,2.004,5.241,4.081,7.766,6.25c1.07-1.99,2.059-4.035,2.83-6.164c-2.519-2.171-5.181-4.019-7.841-5.825
						c0.973-2.16,1.911-5.222,2.258-7.188c2.551,1.315,5.695,3.355,7.877,4.946c0.588-2.268,0.787-5.826,0.717-7.828
						c-1.895-1.217-4.96-2.897-7.695-4.144c0.054-1.411,0-2.87-0.193-4.291c2.49,0.978,4.916,2.156,7.334,3.367
						c-0.469-2.899-1.45-5.637-2.794-8.188c-2.096-0.745-4.238-1.491-6.397-2.112c-0.481-1.174-0.947-2.177-1.601-3.205
						c1.934,0.419,3.747,1.063,5.618,1.593c-0.48-0.823-1.224-1.586-1.915-2.339c-1.873-1.984-3.957-3.641-6.221-4.816l-2.269-0.278
						h0c-0.907-0.92-1.827-1.723-2.628-2.256c3.129,0.967,7.561,2.408,11.561,6.715C76.454,90.071,78.957,101.201,76.321,112.058z"
						/>
					<path fill="#FFFFFF" d="M22.948,94.824c-1.941-0.367-4.366-0.909-6.577-1.031v1.857c1.652,0.263,3.883,0.966,5.396,1.477
						C22.191,96.446,22.685,95.503,22.948,94.824z"/>
					<path fill="#FFFFFF" d="M16.371,73.959V92.88c0.002-0.409,0.006-0.802,0.013-0.802c2.26-0.061,5.508,0.087,7.514,0.272
						c0.336-0.797,0.528-1.706,0.695-2.584c-1.745-0.065-5.773,0.231-8.202,0.555v-1.279c2.726-0.549,4.983-0.941,8.336-1.262
						c-0.002-0.653-0.024-1.58-0.189-2.296c-2.227,0.358-5.624,1.249-8.153,2.13v-1.12c2.39-0.926,5.313-1.991,7.835-2.479
						c-0.109-0.626-0.419-1.304-0.724-1.845c-2.374,0.737-4.87,1.839-7.126,2.94v-1.227c1.321-0.699,4.157-2.081,6.19-2.892
						c-0.396-0.538-0.907-1.078-1.474-1.442c-1.408,0.714-3.188,1.794-4.7,2.716v-1.189c1.132-0.775,2.392-1.484,3.617-2.203
						c-0.676-0.438-1.684-0.885-2.569-1.089l-1.061,0.736v-1.897c3.465,0.469,7.089,2.602,8.58,5.999
						c2.466,6.194-0.24,12.617-3.676,17.57c-1.386,1.928-3.131,3.757-4.906,5.502v1.704c1.249-1.048,2.573-2.373,3.641-3.599
						c3.344,2.128,6.399,4.382,9.478,6.781c0.896-0.935,1.752-1.99,2.512-3.008c-3.181-2.056-7.818-4.673-10.236-5.851
						c0.927-1.134,1.858-2.664,2.414-3.786c3.366,0.942,8.497,2.86,11.388,4.221c0.677-1.192,1.296-2.411,1.828-3.659
						c-3.863-1.388-7.863-2.499-11.868-3.226c0.398-0.865,0.755-1.879,0.908-2.707c4.286,0.282,8.161,0.755,12.415,1.726
						c0.397-1.376,0.693-2.972,0.856-4.207c-4.551-0.512-8.812-0.554-12.623-0.438c0.063-0.605,0.133-1.584,0.133-2.074
						c3.76-0.376,8.488-0.556,12.616-0.296c-0.008-1.305-0.215-2.58-0.584-3.769c-4.141,0.165-8.376,0.717-12.225,1.455
						c-0.084-0.491-0.206-1.004-0.402-1.529c3.127-0.89,7.755-1.596,11.814-2.019c-0.412-1.071-1.217-2.216-1.891-2.935
						c-3.674,0.701-8.357,2.065-10.746,2.915c-0.165-0.353-0.513-0.921-0.832-1.297c3.304-1.345,6.589-2.242,10.018-3.055
						c-0.775-0.76-2.144-1.662-3.416-2.171c-2.683,0.857-5.951,2.26-8.227,3.475c-0.266-0.275-0.626-0.576-0.966-0.757
						c1.849-1.246,4.721-2.562,7.091-3.414c-1.434-0.574-3.632-0.89-5.335-0.905c-1.311,0.716-2.885,1.722-4.511,2.884
						c-0.421-0.177-0.88-0.324-1.312-0.418c1.015-0.835,2.138-1.691,3.306-2.397C19.829,73.331,17.878,73.639,16.371,73.959z"/>
				</g>
			</g>
			<g>
				<path fill="#D2E3ED" d="M84.801,252.028L84.801,252.028l20.164,9.171l52.181-51.056l-25.543-11.125
					c12.158-12.709,20.937-21.316,20.937-21.316s88.087-4.858,123.116,21.492C298.53,216.399,70.329,322.102,60.484,299.837
					C56.834,291.565,68.584,272.599,84.801,252.028z"/>
			</g>
			<g>
				<path fill="#26333B" d="M295.521,175.563c-30.389-3.33-21.648-28.563-21.648-28.563s38.117-2.237,70.459-18.703
					c11.039,12.198,16.357,23.99,16.357,23.99S325.927,178.898,295.521,175.563z"/>
			</g>
			<path fill="#B6C4DA" d="M38.652,143.72c8.109,0.017,16.368-0.318,24.692-0.909c-1.805,6.908-3.101,15.998-3.886,25.704
				c-16.544-2.073-26.255-3.444-26.255-3.444s-6.271,24.006,2.697,33.877c1.415,1.556,9.833,4.955,23.252,9.134
				c0.119,1.623,0.256,3.21,0.417,4.703c-7.875-2.079-15.82-4.243-23.89-6.56c-6.086-0.286-10.37-14.513-9.548-31.776
				C26.95,157.189,32.564,143.434,38.652,143.72z"/>
			<path fill="#241E1F" d="M403.428,185.558c-15.901,1.702-33.585,2.656-52.357,3.028c0.146-10.566,2.728-22.769,9.618-36.3
				c0,0,46.544,15.728,48.066,35.454c-2.504,17.234-18.036,31.406-44.469,41.061c-0.149,0.049-0.297,0.099-0.445,0.148
				c-1.297-1.741-3.01-4.257-4.746-7.472C377.656,213.154,393.012,201.491,403.428,185.558z"/>
			<path fill="#90ACDA" d="M33.202,165.072c0,0,9.712,1.371,26.255,3.444c-1.086,13.38-1.195,27.921-0.306,39.567
				c-13.419-4.18-21.837-7.578-23.252-9.134C26.931,189.079,33.202,165.072,33.202,165.072z"/>
			<path fill="#60686E" d="M403.428,185.558c-10.417,15.932-25.772,27.596-44.332,35.92c-4.018-7.448-8.224-18.672-8.025-32.892
				C369.843,188.214,387.527,187.261,403.428,185.558z"/>
			<path fill="#B5CBDA" d="M254.559,195.866c5.436,15.473-176.216,108.403-191.558,102.326
				c-15.332-6.079,92.348-117.324,92.348-117.324S223.285,179.165,254.559,195.866z"/>
			<g>
				<path fill="#005898" d="M104.965,261.199l-20.164-9.171l0,0c14.645-18.589,32.929-38.478,46.802-53.01l25.543,11.125
					L104.965,261.199z"/>
			</g>
			<polygon fill="#64ACD0" points="134.949,203.598 92.19,251.259 103.996,257.343 152.748,210.757 			"/>
			<g>
				<polygon fill="#E0EBF0" points="109.678,185.253 63.954,177.294 20.607,230.953 42.114,235.536 				"/>
			</g>
			<polygon fill="#D2E3ED" points="94.213,185.072 41.073,231.51 24.955,228.774 65.408,180.261 			"/>
			<path fill="#45617C" d="M356.287,150.486c-44.167,12.528-80.493,1.043-80.493,1.043s-4.485,17.46,23.714,20.321
				C327.704,174.715,359.931,150.659,356.287,150.486z"/>
			<polygon fill="#45617C" points="236.889,147.129 243.505,167.864 229.887,167.214 230.861,146.7 			"/>
			<polygon fill="#45617C" points="197.333,145.251 203.949,165.981 190.33,165.336 191.304,144.819 			"/>
			<polygon fill="#45617C" points="156.206,143.29 162.822,164.027 149.203,163.378 150.177,142.859 			"/>
			<path fill="#FFFFFF" d="M373.438,173.912c-0.134,2.778,2.013,5.142,4.796,5.271c2.778,0.13,5.144-2.011,5.276-4.792
				c0.126-2.779-2.018-5.143-4.797-5.276C375.927,168.98,373.57,171.13,373.438,173.912z"/>
			<path fill="#FFFFFF" d="M389.382,178.031c-0.042,0.93,0.677,1.718,1.605,1.758c0.919,0.042,1.708-0.667,1.761-1.596
				c0.039-0.925-0.678-1.717-1.607-1.758C390.212,176.389,389.425,177.112,389.382,178.031z"/>
			<polygon fill="#4C9BC6" points="133.89,132.509 106.618,119.107 24.764,4.779 108.892,115.866 136.15,128.931 			"/>
			<path fill="#2C74A6" d="M143.655,148.04c0,0-0.902-3.54,1.121-6.48l-8.626-12.629l-2.26,3.578
				C133.89,132.509,133.52,141.423,143.655,148.04z"/>
		</g>
	</g>
</g>
</svg>
