<?xml version="1.0" encoding="utf-8"?>
<!-- Generator: Adobe Illustrator 18.0.0, SVG Export Plug-In . SVG Version: 6.00 Build 0)  -->
<!DOCTYPE svg PUBLIC "-//W3C//DTD SVG 1.1//EN" "http://www.w3.org/Graphics/SVG/1.1/DTD/svg11.dtd">
<svg version="1.1" id="Layer_1" xmlns="http://www.w3.org/2000/svg" xmlns:xlink="http://www.w3.org/1999/xlink" x="0px" y="0px"
	 viewBox="0 0 477 260.6" enable-background="new 0 0 477 260.6" xml:space="preserve">
<g>
	<g>
		<g>
			<path fill-rule="evenodd" clip-rule="evenodd" d="M2.4,200.4c0,0,5.7,8.2,13.9,5.7l30.2-19.6l13.1,6.5l18,13.9l3,40
				c0,0,42.7-5.7,47.6-29.4l225.3,2.4l75.9,21.2c0,0,13.1,0.8,21.2-18l13.1,0.8l-4.1-17.1l-40-61.2l-187.7-28.6L93,115.5l-60.4-0.8
				L8.1,158l-5.7,40"/>
			<g>
				<g>
					<g>
						<g>
							<g>
								<linearGradient id="SVGID_1_" gradientUnits="userSpaceOnUse" x1="337.0525" y1="10.4759" x2="345.0081" y2="90.6432">
									<stop  offset="0" style="stop-color:#698A91"/>
									<stop  offset="0.5393" style="stop-color:#335C64"/>
									<stop  offset="1" style="stop-color:#02383B"/>
								</linearGradient>
								<path fill-rule="evenodd" clip-rule="evenodd" fill="url(#SVGID_1_)" d="M408.8,84.7c0,0-89.4-60.8-126.5-69.8l-9,2
									c0,0,96.3,53.9,112.2,66.9L408.8,84.7z"/>
								<g>
									<linearGradient id="SVGID_2_" gradientUnits="userSpaceOnUse" x1="24.7489" y1="52.4402" x2="32.4592" y2="130.1355">
										<stop  offset="0" style="stop-color:#F37E5F"/>
										<stop  offset="0.5" style="stop-color:#EC1C24"/>
										<stop  offset="1" style="stop-color:#CF232A"/>
									</linearGradient>
									<path fill-rule="evenodd" clip-rule="evenodd" fill="url(#SVGID_2_)" d="M39.5,50c0,0-33.1,45.3-22.4,82
										C17.1,132,50.5,66.7,39.5,50z"/>
									<g>
										<g>
											<linearGradient id="SVGID_3_" gradientUnits="userSpaceOnUse" x1="0" y1="109.3659" x2="477.0404" y2="109.3659">
												<stop  offset="1.123600e-02" style="stop-color:#F5E19A"/>
												<stop  offset="0.5112" style="stop-color:#ECC91A"/>
												<stop  offset="1" style="stop-color:#BF9D17"/>
											</linearGradient>
											<path fill-rule="evenodd" clip-rule="evenodd" fill="url(#SVGID_3_)" d="M40.2,48.2c0,0-11.8,57.1-26.1,86.5
												c0,0-20.8,22.4-11.8,51.8c0,0-5.3,11.8,5.3,18c0,0-5.7-41.2,40.4-44.9c46.1-3.7,46.9,49,46.9,49s1.2,6.5,5.3,5.7
												l248.5,4.5c0,0,1.8-1.8,2.1-3.8c0.1-0.7,0-1.3-0.4-1.9c-1.6-2.4-4.9-40,33.5-51c38.4-11,56.3,37.9,56.3,37.9
												s4.1,20.8,23.3,16.3v0l8.6-21.2c0,0,13-27.3-2.4-42.4l-10.2-5.7l8.6,0.4c0,0-4.5-27.7-41.2-60.8l-43.3-5.3
												c0,0-58.4-46.9-102.8-65.3h9c0,0-58.3-31-208.1-6.5c0,0-23.7,10.2-40.8,37.5"/>
											<linearGradient id="SVGID_4_" gradientUnits="userSpaceOnUse" x1="196.1831" y1="62.2814" x2="210.6375" y2="207.937">
												<stop  offset="1.123600e-02" style="stop-color:#F5E19A"/>
												<stop  offset="0.5112" style="stop-color:#ECC91A"/>
												<stop  offset="1" style="stop-color:#BF9D17"/>
											</linearGradient>
											
												<path opacity="0.36" fill-rule="evenodd" clip-rule="evenodd" fill="url(#SVGID_4_)" stroke="#000000" stroke-width="0.1953" d="
												M68.6,73.1c0,0-24.6,55.4,57.6,119.6l194.2,4.9c0,0,12,1.1,14.1-21.2c0,0,6.2-68.3-3.1-79.7L68.6,73.1z"/>
											<linearGradient id="SVGID_5_" gradientUnits="userSpaceOnUse" x1="95.1602" y1="211.7753" x2="347.6154" y2="211.7753">
												<stop  offset="1.123600e-02" style="stop-color:#F5E19A"/>
												<stop  offset="0.5112" style="stop-color:#ECC91A"/>
												<stop  offset="1" style="stop-color:#BF9D17"/>
											</linearGradient>
											<path fill-rule="evenodd" clip-rule="evenodd" fill="url(#SVGID_5_)" d="M95.2,210.7c0,0,38.1-4.4,87.1-4.4
												c49,0,150.7,2.7,150.7,2.7l14.7,8.2L95.2,210.7z"/>
										</g>
										<linearGradient id="SVGID_6_" gradientUnits="userSpaceOnUse" x1="52.8909" y1="153.5123" x2="57.4349" y2="199.3022">
											<stop  offset="1.123600e-02" style="stop-color:#F5E19A"/>
											<stop  offset="0.5112" style="stop-color:#ECC91A"/>
											<stop  offset="1" style="stop-color:#BF9D17"/>
										</linearGradient>
										<path fill-rule="evenodd" clip-rule="evenodd" fill="url(#SVGID_6_)" d="M5.6,204.6c0,0-4.1,1.2-2.9-14.3
											c0,0,3.3-44.5,56.7-35.1c0,0,17.1,4.5,23.3,12.6c6.1,8.2,12.2,8.2,14.3,8.6c2,0.4,13.1,6.9,13.9,10.6L95,190.4
											c0,0-29-36.3-60.4-29c-31.4,7.3-28.6,42-28.6,42"/>
										<linearGradient id="SVGID_7_" gradientUnits="userSpaceOnUse" x1="364.9819" y1="156.1251" x2="368.805" y2="194.6495">
											<stop  offset="1.123600e-02" style="stop-color:#F5E19A"/>
											<stop  offset="0.5112" style="stop-color:#ECC91A"/>
											<stop  offset="1" style="stop-color:#BF9D17"/>
										</linearGradient>
										<path fill-rule="evenodd" clip-rule="evenodd" fill="url(#SVGID_7_)" d="M390.1,159.6c0,0,0-6-4.4-6
											c-4.4,0-33.7,6-41.9,38.6l1.6,4.9C345.4,197.1,356.9,158.5,390.1,159.6z"/>
									</g>
								</g>
							</g>
							<path fill-rule="evenodd" clip-rule="evenodd" d="M68,73c0,0,8.4-26.9,19.9-42.4c0,0,12-20.4,48.7-21.2
								c0,0,89.2-7.1,124.9,8.4c35.6,15.5,65.8,30.7,102.8,63.4c0,0,29.9,23.4-12.8,17.1l-86.5-7.9L68,73z"/>
						</g>
						<g>
							<linearGradient id="SVGID_8_" gradientUnits="userSpaceOnUse" x1="157.7635" y1="31.6717" x2="162.9008" y2="83.4401">
								<stop  offset="0" style="stop-color:#698A91"/>
								<stop  offset="0.5393" style="stop-color:#335C64"/>
								<stop  offset="1" style="stop-color:#02383B"/>
							</linearGradient>
							<path fill-rule="evenodd" clip-rule="evenodd" fill="url(#SVGID_8_)" d="M131.6,76.6c0,0,0.6-21.8-2.7-27.2
								c0,0-0.6-21.8,59.3-19.6l2.2,51.1L131.6,76.6z"/>
							<linearGradient id="SVGID_9_" gradientUnits="userSpaceOnUse" x1="210.7601" y1="30.4285" x2="214.5397" y2="68.5144">
								<stop  offset="0" style="stop-color:#698A91"/>
								<stop  offset="0.5393" style="stop-color:#335C64"/>
								<stop  offset="1" style="stop-color:#02383B"/>
							</linearGradient>
							<path fill-rule="evenodd" clip-rule="evenodd" fill="url(#SVGID_9_)" d="M206.7,30.3l4.9,38.6c0,0,1.1-12,0-18.5
								c-1.1-6.5-3.8-13.1,3.3-19.6L206.7,30.3z"/>
							<linearGradient id="SVGID_10_" gradientUnits="userSpaceOnUse" x1="275.3058" y1="28.9519" x2="281.2994" y2="89.3492">
								<stop  offset="0" style="stop-color:#698A91"/>
								<stop  offset="0.5393" style="stop-color:#335C64"/>
								<stop  offset="1" style="stop-color:#02383B"/>
							</linearGradient>
							<path fill-rule="evenodd" clip-rule="evenodd" fill="url(#SVGID_10_)" d="M242.6,31.4c0,0,41.4,6,44.6,8.7
								c0,0,26.7,30.5,26.7,46.2c0,0-23.9-1.6-28.3-2.7c-4.4-1.1-27.2-12.5-27.2-12.5S270.9,44.5,242.6,31.4z"/>
						</g>
						<g>
							
								<linearGradient id="SVGID_11_" gradientUnits="userSpaceOnUse" x1="50.2431" y1="-525.5768" x2="72.6904" y2="-525.5768" gradientTransform="matrix(0.9958 9.110000e-02 -9.110000e-02 0.9958 -23.8695 623.0132)">
								<stop  offset="0" style="stop-color:#B18B75"/>
								<stop  offset="0.5" style="stop-color:#94644A"/>
								<stop  offset="1" style="stop-color:#87503A"/>
							</linearGradient>
							<path fill-rule="evenodd" clip-rule="evenodd" fill="url(#SVGID_11_)" d="M96.4,106.3c-0.2,2.1-2.1,3.7-4.2,3.5l-14.6-1.3
								c-2.1-0.2-3.7-2.1-3.5-4.2l0,0c0.2-2.1,2.1-3.7,4.2-3.5l14.6,1.3C95,102.3,96.6,104.1,96.4,106.3L96.4,106.3z"/>
							
								<linearGradient id="SVGID_12_" gradientUnits="userSpaceOnUse" x1="50.2411" y1="-530.0623" x2="72.6852" y2="-530.0623" gradientTransform="matrix(0.9958 9.110000e-02 -9.110000e-02 0.9958 -23.8695 623.0132)">
								<stop  offset="1.123600e-02" style="stop-color:#F5E19A"/>
								<stop  offset="0.5112" style="stop-color:#ECC91A"/>
								<stop  offset="1" style="stop-color:#BF9D17"/>
							</linearGradient>
							<path fill-rule="evenodd" clip-rule="evenodd" fill="url(#SVGID_12_)" d="M96.8,101.8c-0.2,2.1-2.1,3.7-4.2,3.5L78,104
								c-2.1-0.2-3.7-2.1-3.5-4.2l0,0c0.2-2.1,2.1-3.7,4.2-3.5l14.6,1.3C95.4,97.8,97,99.7,96.8,101.8L96.8,101.8z"/>
						</g>
						<g>
							
								<linearGradient id="SVGID_13_" gradientUnits="userSpaceOnUse" x1="186.3436" y1="-524.9155" x2="208.7886" y2="-524.9155" gradientTransform="matrix(0.9958 9.110000e-02 -9.110000e-02 0.9958 -23.8695 623.0132)">
								<stop  offset="0" style="stop-color:#B18B75"/>
								<stop  offset="0.5" style="stop-color:#94644A"/>
								<stop  offset="1" style="stop-color:#87503A"/>
							</linearGradient>
							<path fill-rule="evenodd" clip-rule="evenodd" fill="url(#SVGID_13_)" d="M231.9,119.3c-0.2,2.1-2.1,3.7-4.2,3.5l-14.6-1.3
								c-2.1-0.2-3.7-2.1-3.5-4.2l0,0c0.2-2.1,2.1-3.7,4.2-3.5l14.6,1.3C230.5,115.3,232.1,117.2,231.9,119.3L231.9,119.3z"/>
							
								<linearGradient id="SVGID_14_" gradientUnits="userSpaceOnUse" x1="186.3409" y1="-529.4058" x2="208.7884" y2="-529.4058" gradientTransform="matrix(0.9958 9.110000e-02 -9.110000e-02 0.9958 -23.8695 623.0132)">
								<stop  offset="1.123600e-02" style="stop-color:#F5E19A"/>
								<stop  offset="0.5112" style="stop-color:#ECC91A"/>
								<stop  offset="1" style="stop-color:#BF9D17"/>
							</linearGradient>
							<path fill-rule="evenodd" clip-rule="evenodd" fill="url(#SVGID_14_)" d="M232.3,114.8c-0.2,2.1-2.1,3.7-4.2,3.5l-14.6-1.3
								c-2.1-0.2-3.7-2.1-3.5-4.2l0,0c0.2-2.1,2.1-3.7,4.2-3.5l14.6,1.3C230.9,110.8,232.5,112.7,232.3,114.8L232.3,114.8z"/>
						</g>
						<path fill-rule="evenodd" clip-rule="evenodd" fill="none" stroke="#5E4300" stroke-width="0.1417" d="M200.3,86.3
							c0,0,2,98.7,5.3,108.9"/>
					</g>
					<path fill-rule="evenodd" clip-rule="evenodd" fill="#CCCCCC" d="M393.7,91.9l42.8,45.3l14.7,8.6
						C451.2,145.8,435.3,95.6,393.7,91.9z"/>
					<path fill-rule="evenodd" clip-rule="evenodd" fill="#E2A380" d="M429.5,114.2l-13.9-2.2l-17.4-18
						C398.2,94.1,420.3,97.9,429.5,114.2z"/>
					<path fill-rule="evenodd" clip-rule="evenodd" fill="none" stroke="#000000" stroke-width="0.2125" d="M383.4,81.2l53.2,56
						c0,0,17.2,14,24.2,9.6"/>
				</g>
				<g>
					<linearGradient id="SVGID_15_" gradientUnits="userSpaceOnUse" x1="298.8307" y1="79.0973" x2="316.6825" y2="79.0973">
						<stop  offset="1.123600e-02" style="stop-color:#F5E19A"/>
						<stop  offset="0.5112" style="stop-color:#ECC91A"/>
						<stop  offset="1" style="stop-color:#BF9D17"/>
					</linearGradient>
					<path fill-rule="evenodd" clip-rule="evenodd" fill="url(#SVGID_15_)" d="M299.8,83.8l7.3,1.6v3.7l8.2-0.4v-4.5
						c0,0,5.7-11.4-6.5-14.7c-12.3-3.3-9.8,13.9-9.8,13.9"/>
					<polygon fill-rule="evenodd" clip-rule="evenodd" points="307.2,89.1 315.4,88.7 321.1,102.2 319.8,105.4 311.7,105.4 					"/>
				</g>
			</g>
		</g>
		<g>
			<path fill-rule="evenodd" clip-rule="evenodd" d="M88.8,222.2c0,21.2-17.2,38.4-38.4,38.4c-21.2,0-38.4-17.2-38.4-38.4
				c0-21.2,17.2-38.4,38.4-38.4C71.6,183.9,88.8,201.1,88.8,222.2z"/>
			<circle fill-rule="evenodd" clip-rule="evenodd" stroke="#B3B3B3" stroke-width="0.7793" cx="50.5" cy="222.2" r="20.9"/>
			
				<radialGradient id="SVGID_16_" cx="596.4965" cy="201.3935" r="11.8564" gradientTransform="matrix(1.3307 0 0 1.3307 -743.3023 -45.7559)" gradientUnits="userSpaceOnUse">
				<stop  offset="0" style="stop-color:#E5E2DF"/>
				<stop  offset="0" style="stop-color:#F7F6F5"/>
				<stop  offset="0" style="stop-color:#FFFFFF"/>
				<stop  offset="0.1232" style="stop-color:#ECEDED"/>
				<stop  offset="0.3585" style="stop-color:#C8C9CA"/>
				<stop  offset="0.5225" style="stop-color:#ADAEB0"/>
				<stop  offset="0.6004" style="stop-color:#A2A4A6"/>
				<stop  offset="0.7316" style="stop-color:#868C8E"/>
				<stop  offset="0.8989" style="stop-color:#5F686B"/>
				<stop  offset="1" style="stop-color:#465053"/>
			</radialGradient>
			<path fill-rule="evenodd" clip-rule="evenodd" fill="url(#SVGID_16_)" stroke="#B3B3B3" stroke-width="0.587" d="M66.2,222.2
				c0,8.7-7.1,15.8-15.8,15.8c-8.7,0-15.8-7.1-15.8-15.8c0-8.7,7.1-15.8,15.8-15.8C59.2,206.5,66.2,213.5,66.2,222.2z"/>
		</g>
		<g>
			<path fill-rule="evenodd" clip-rule="evenodd" d="M432.1,222.2c0,21.2-17.2,38.4-38.4,38.4c-21.2,0-38.4-17.2-38.4-38.4
				c0-21.2,17.2-38.4,38.4-38.4C415,183.9,432.1,201.1,432.1,222.2z"/>
			<circle fill-rule="evenodd" clip-rule="evenodd" stroke="#B3B3B3" stroke-width="0.7793" cx="393.8" cy="222.2" r="20.9"/>
			
				<radialGradient id="SVGID_17_" cx="854.4944" cy="201.393" r="11.856" gradientTransform="matrix(1.3307 0 0 1.3307 -743.3023 -45.7559)" gradientUnits="userSpaceOnUse">
				<stop  offset="0" style="stop-color:#E5E2DF"/>
				<stop  offset="0" style="stop-color:#F7F6F5"/>
				<stop  offset="0" style="stop-color:#FFFFFF"/>
				<stop  offset="0.1232" style="stop-color:#ECEDED"/>
				<stop  offset="0.3585" style="stop-color:#C8C9CA"/>
				<stop  offset="0.5225" style="stop-color:#ADAEB0"/>
				<stop  offset="0.6004" style="stop-color:#A2A4A6"/>
				<stop  offset="0.7316" style="stop-color:#868C8E"/>
				<stop  offset="0.8989" style="stop-color:#5F686B"/>
				<stop  offset="1" style="stop-color:#465053"/>
			</radialGradient>
			<path fill-rule="evenodd" clip-rule="evenodd" fill="url(#SVGID_17_)" stroke="#B3B3B3" stroke-width="0.587" d="M409.5,222.2
				c0,8.7-7.1,15.8-15.8,15.8c-8.7,0-15.8-7.1-15.8-15.8c0-8.7,7.1-15.8,15.8-15.8C402.5,206.5,409.5,213.5,409.5,222.2z"/>
		</g>
	</g>
</g>
</svg>
