<?xml version="1.0" encoding="utf-8"?>
<!-- Generator: Adobe Illustrator 18.0.0, SVG Export Plug-In . SVG Version: 6.00 Build 0)  -->
<!DOCTYPE svg PUBLIC "-//W3C//DTD SVG 1.1//EN" "http://www.w3.org/Graphics/SVG/1.1/DTD/svg11.dtd">
<svg version="1.1" id="Layer_1" xmlns="http://www.w3.org/2000/svg" xmlns:xlink="http://www.w3.org/1999/xlink" x="0px" y="0px"
	 viewBox="44.2 195.4 523.6 343.4" enable-background="new 44.2 195.4 523.6 343.4" xml:space="preserve">
<path fill="#FFFFFF" d="M234.6,395.3l-7.5,14.3l-27.9-70.7l-17.7,39.4l-11.6-15l25.2-70.7l32,72.8l55.1,122.4l121.7-100.6l0,0
	l46.2-40.1l29.2,62.6l-31.3,19.7L427,396l-19.7,18.4l-12.2-13.6l-111.5,91.1l20.4,45.6l263.8-0.7L496.4,398l-12.9,8.2l-32-68
	L406.6,377L301.9,195.4L215.6,326l-21.8-49l-36,102l-24.5-29.2l-89.1,189l254.3-0.7L234.6,395.3z M301.9,205.6l23.8,41.5l-7.5,10.2
	L306,241l-17.7,35.4L272,249.8L301.9,205.6z"/>
</svg>
