<?xml version="1.0" encoding="utf-8"?>
<!-- Generator: Adobe Illustrator 18.0.0, SVG Export Plug-In . SVG Version: 6.00 Build 0)  -->
<!DOCTYPE svg PUBLIC "-//W3C//DTD SVG 1.1//EN" "http://www.w3.org/Graphics/SVG/1.1/DTD/svg11.dtd">
<svg version="1.1" id="Layer_1" xmlns="http://www.w3.org/2000/svg" xmlns:xlink="http://www.w3.org/1999/xlink" x="0px" y="0px"
	 viewBox="211 55.4 190.1 271.6" enable-background="new 211 55.4 190.1 271.6" xml:space="preserve">
<g id="Layer_1_1_">
</g>
<g id="Layer_2">
	<g>
		<path fill="#FFFFFF" d="M303.6,55.4h-0.8c-4.8,0.8-13.5,4-13.5,4v4l-5.5,2.4v4.8c0,0-2.4,0.8-6.3,2.4s0.8,2.4,4.8,7.1
			c4,4.8,0,7.1,0,7.1c-23.8,7.9-53.9,21.4-53.9,21.4v6.3c-4,0.8-17.4,4.8-17.4,7.9c0,7.9,26.9,10.3,26.9,10.3l1.6,4.8
			c-4,1.6-9.5,6.3-9.5,6.3c8.7,7.9,34.1,12.7,34.1,12.7l17.4,133.1l-1.6,37.1h48.3v-34.8L348,157.6c0,0,25.3-4,34.1-12.7
			c0,0-4.8-4.8-9.5-6.3l1.6-4.8c0,0,26.9-3.2,26.9-10.3c0-3.2-13.5-7.9-17.4-7.9v-6.3c0,0-30.9-13.5-53.9-21.4c0,0-4-2.4,0-7.1
			c4-4.8,8.7-4.8,4.8-7.1c-4-1.6-6.3-2.4-6.3-2.4v-4l-5.5-2.4v-4.8c0,0-8.7-4-13.5-4c-0.8,0-1.6,0-2.4,0l0,0l-0.8-0.8l0,0l0,0
			 M294.9,158.4v141.8c0,0-15.8-137.8-15.8-141.8C279.1,158.4,288.6,158.4,294.9,158.4z M321.8,263.7c-4.8,0-3.2-99.8-3.2-105.3
			c0,0,15,0.8,20.6,0C339.3,158.4,332.1,263.7,321.8,263.7z"/>
	</g>
</g>
</svg>
