<?xml version="1.0" encoding="utf-8"?>
<!-- Generator: Adobe Illustrator 18.0.0, SVG Export Plug-In . SVG Version: 6.00 Build 0)  -->
<!DOCTYPE svg PUBLIC "-//W3C//DTD SVG 1.1//EN" "http://www.w3.org/Graphics/SVG/1.1/DTD/svg11.dtd">
<svg version="1.1" id="Layer_1" xmlns="http://www.w3.org/2000/svg" xmlns:xlink="http://www.w3.org/1999/xlink" x="0px" y="0px"
	 viewBox="0 0 80.3 100" enable-background="new 0 0 80.3 100" xml:space="preserve">
<path fill="#FFFFFF" d="M4,19v4h4v34.5h64.2V23h4v-4C52.2,11,28.1,11,4,19z M28.1,53.5H12c0,0,0-23.2,0-26.4
	c5.3-3.2,10.7-3.2,16.1,0C28.1,30.3,28.1,53.5,28.1,53.5z M48.2,53.5H32.1c0,0,0-23.2,0-26.4c5.3-3.2,10.7-3.2,16.1,0
	C48.2,30.3,48.2,53.5,48.2,53.5z M68.2,53.5H52.2c0,0,0-23.2,0-26.4c5.3-3.2,10.7-3.2,16.1,0C68.2,30.3,68.2,53.5,68.2,53.5z"/>
<path fill="#FFFFFF" d="M8,59.6v21.9h64.2V59.6H8z M40.1,74.6c-2.2,0-4-1.8-4-4s1.8-4,4-4c2.2,0,4,1.8,4,4S42.3,74.6,40.1,74.6z"/>
<path fill="#FFFFFF" d="M72.2,88v-4h-7.6h-8.5H24.1h-8.5H8v4H0v4h8h2.4c0.9,0,2.1-0.5,2.7-1.1l1.7-1.7c0.5-0.5,1.4-0.9,2.2-1.1
	c1.4,0.2,1.6,1.3,0.4,2.5l-7,7c-1.4,1.4-0.9,2.5,1,2.5h57.1c2,0,2.4-1.1,1-2.5l-7-7c-1.2-1.2-1-2.2,0.4-2.5c0.8,0.1,1.7,0.6,2.2,1.1
	l1.7,1.7c0.6,0.6,1.9,1.1,2.7,1.1h2.4h8v-4L72.2,88L72.2,88z"/>
<path fill="#FFFFFF" d="M20.1,12.2c16.1-2,24.1-2,40.1,0v-2h4c0,0,0,0,0-2c-16.1-4-32.1-4-48.2,0v2h4L20.1,12.2L20.1,12.2z"/>
<path fill="#FFFFFF" d="M44.2,3.8c-0.1-2.1-1.9-3.8-4-3.8s-3.9,1.7-4,3.8C38.8,3.6,41.5,3.6,44.2,3.8z"/>
<path fill="#FFFFFF" d="M5.9,37.2c0-0.9-0.7-1.6-1.6-1.6s-1.6,0.7-1.6,1.6v38.2c0,0.9,0.7,1.6,1.6,1.6s1.6-0.7,1.6-1.6V37.2z"/>
<path fill="#FFFFFF" d="M77.6,37.2c0-0.9-0.7-1.6-1.6-1.6c-0.9,0-1.6,0.7-1.6,1.6v38.2c0,0.9,0.7,1.6,1.6,1.6c0.9,0,1.6-0.7,1.6-1.6
	V37.2z"/>
</svg>
